<svg width="125" height="124" viewBox="0 0 125 124" fill="none" xmlns="http://www.w3.org/2000/svg">
<g filter="url(#filter0_d_62_7774)">
<path d="M75.9587 10.7366L73.5986 10.5967L71.2247 10.7137L75.9587 10.7366ZM80.5326 11.7623L75.9587 10.7366L71.2247 10.7137L80.5326 11.7623ZM71.2247 10.7137L68.8632 11.0946L66.5401 11.7476L71.2247 10.7137ZM80.5326 11.7623L78.2789 11.1269L75.9587 10.7366L80.5326 11.7623ZM84.7318 13.7495L82.6928 12.6378L80.5326 11.7623L84.7318 13.7495ZM88.3319 16.6676L84.7318 13.7495L80.5326 11.7623L88.3319 16.6676ZM88.3319 16.6676L86.6212 15.0937L84.7318 13.7495L88.3319 16.6676ZM71.2247 10.7137L66.5401 11.7476L31.041 28.8412L71.2247 10.7137ZM80.5326 11.7623L71.2247 10.7137L31.041 28.8412L80.5326 11.7623ZM66.5401 11.7476L64.2816 12.6817L31.041 28.8412L66.5401 11.7476ZM80.5326 11.7623L31.041 28.8412L23.4214 35.1196L80.5326 11.7623ZM113.635 52.4599L88.3319 16.6676L80.5326 11.7623L113.635 52.4599ZM111.184 47.934L89.8336 18.4687L88.3319 16.6676L111.184 47.934ZM31.041 28.8412L28.7787 30.1113L26.7476 31.597L31.041 28.8412ZM31.041 28.8412L26.7476 31.597L23.4214 35.1196L31.041 28.8412Z" fill="#EB5128"/>
<path d="M21.9595 54.4431L22.9712 58.1267L23.9346 60.2977L21.9595 54.4431Z" fill="#DB241C"/>
<path d="M80.5326 11.7623L23.4213 35.1195L21.8999 52.8258L80.5326 11.7623ZM26.7475 31.597L24.9579 33.2744L23.4213 35.1195L26.7475 31.597Z" fill="#EB5128"/>
<path d="M22.9408 56.6485L21.9595 54.4431L23.9346 60.2977L22.9408 56.6485Z" fill="#DB241C"/>
<path d="M23.4213 35.1196L22.1501 37.108L21.1577 39.2146L23.4213 35.1196ZM113.635 52.4599L111.184 47.9341L88.3318 16.6676L113.635 52.4599ZM23.4213 35.1196L21.1577 39.2146L20.0674 43.6784L23.4213 35.1196ZM21.1577 39.2146L20.4585 41.4136L20.0674 43.6784L21.1577 39.2146Z" fill="#EB5128"/>
<path d="M20.8999 50.5852L21.9595 54.4431L22.9408 56.6484L20.8999 50.5852Z" fill="#DB241C"/>
<path d="M23.4213 35.1196L20.0674 43.6784L21.8999 52.8258L23.4213 35.1196Z" fill="#EB5128"/>
<path d="M22.9409 56.6484L23.9347 60.2977L41.5995 93.2232L22.9409 56.6484Z" fill="#DB241C"/>
<path d="M110.009 70.6576L113.635 52.4598L80.5326 11.7623L110.009 70.6576ZM21.8999 52.8258L110.009 70.6576L80.5326 11.7623L21.8999 52.8258Z" fill="#EB5128"/>
<path d="M111.805 70.2L110.756 73.6297L111.677 71.4686L111.805 70.2Z" fill="#DB241C"/>
<path d="M20.0675 43.6784L20 45.9817L20.2721 48.2943L20.0675 43.6784Z" fill="#EB5128"/>
<path d="M110.546 72.2722L109.523 75.6661L110.756 73.629L110.546 72.2722ZM21.8998 52.8258L20.8999 50.5852L22.9408 56.6484L21.8998 52.8258Z" fill="#DB241C"/>
<path d="M20.0674 43.6784L20.272 48.2934L21.8999 52.8258L20.0674 43.6784Z" fill="#EB5128"/>
<path d="M112.743 68.0025L111.805 70.2L111.677 71.4684L112.743 68.0025ZM108.971 74.1842L107.981 77.5454L109.523 75.6661L108.971 74.1842Z" fill="#DB241C"/>
<path d="M113.635 52.4607L112.58 50.1513L111.184 47.934L113.635 52.4607ZM20.272 48.2935L20.8999 50.5857L21.8998 52.8267L20.272 48.2935Z" fill="#EB5128"/>
<path d="M111.804 70.2L110.546 72.2722L110.756 73.6291L111.804 70.2ZM107.083 75.9006L106.134 79.2322L107.981 77.5454L107.083 75.9006ZM104.888 77.3854L103.989 80.6911L106.134 79.2322L104.888 77.3854ZM110.546 72.2722L108.971 74.1842L109.523 75.6661L110.546 72.2722ZM108.971 74.1842L107.083 75.9006L107.981 77.5454L108.971 74.1842Z" fill="#DB241C"/>
<path d="M114.732 57.2418L114.352 54.8333L113.635 52.4598L114.732 57.2418Z" fill="#EB5128"/>
<path d="M21.8999 52.8258L22.9409 56.6485L40.9771 90.1476L21.8999 52.8258ZM107.083 75.9006L104.889 77.3854L106.135 79.2322L107.083 75.9006Z" fill="#DB241C"/>
<path d="M114.484 62.0405L114.732 57.2409L113.635 52.4598L114.484 62.0405Z" fill="#EB5128"/>
<path d="M112.904 66.6036L111.804 70.2L112.742 68.0025L112.904 66.6036ZM40.9771 90.1476L22.9409 56.6484L41.5995 93.2232L40.9771 90.1476Z" fill="#DB241C"/>
<path d="M114.484 62.0414L114.776 59.6544L114.732 57.2409L114.484 62.0414Z" fill="#EB5128"/>
<path d="M111.619 68.7119L110.546 72.2722L111.804 70.2L111.619 68.7119ZM113.86 64.3683L112.904 66.6036L112.742 68.0026L113.86 64.3683ZM110.009 70.6576L108.971 74.1842L110.546 72.2722L110.009 70.6576Z" fill="#DB241C"/>
<path d="M110.009 70.6576L114.484 62.0405L113.635 52.4598L110.009 70.6576Z" fill="#EB5128"/>
<path d="M112.904 66.6036L111.619 68.7119L111.804 70.2L112.904 66.6036ZM108.078 72.4046L107.083 75.9006L108.971 74.1842L108.078 72.4046ZM104.889 77.3854L69.603 97.8005L103.99 80.6911L104.889 77.3854Z" fill="#DB241C"/>
<path d="M112.904 66.6045L113.86 64.3687L114.484 62.0405L112.904 66.6045Z" fill="#EB5128"/>
<path d="M105.832 73.916L104.889 77.3854L107.083 75.9006L105.832 73.916ZM111.619 68.7119L110.009 70.6576L110.546 72.2722L111.619 68.7119ZM40.9771 90.1476L41.5994 93.2232L43.0469 95.5182L40.9771 90.1476ZM69.6029 97.8005L69.5333 100.731L103.989 80.6911L69.6029 97.8005Z" fill="#DB241C"/>
<path d="M110.009 70.6576L112.904 66.6036L114.484 62.0405L110.009 70.6576Z" fill="#EB5128"/>
<path d="M110.009 70.6576L108.078 72.4046L108.971 74.1842L110.009 70.6576ZM42.458 92.4863L43.0471 95.5182L44.7723 97.5542L42.458 92.4863Z" fill="#DB241C"/>
<path d="M110.009 70.6584L111.619 68.7123L112.904 66.6036L110.009 70.6584Z" fill="#EB5128"/>
<path d="M108.078 72.4046L105.832 73.916L107.083 75.9006L108.078 72.4046ZM44.2237 94.5615L44.772 97.5542L46.7422 99.3161L44.2237 94.5615ZM42.4578 92.4863L40.9771 90.1476L43.0469 95.5182L42.4578 92.4863ZM40.3231 86.9161L21.8999 52.8258L40.9771 90.1476L40.3231 86.9161ZM46.2413 96.3577L46.7422 99.3161L48.9231 100.79L46.2413 96.3577Z" fill="#DB241C"/>
<path d="M105.833 73.9167L108.078 72.4049L110.009 70.6576L105.833 73.9167Z" fill="#EB5128"/>
<path d="M48.4758 97.8601L48.9233 100.79L51.2796 101.961L48.4758 97.8601ZM44.224 94.5615L42.458 92.4863L44.7723 97.5542L44.224 94.5615ZM67.0129 99.0744L67.0067 101.98L69.5336 100.731L67.0129 99.0744Z" fill="#DB241C"/>
<path d="M21.8999 52.8258L55.8342 97.4377L110.009 70.6576L21.8999 52.8258Z" fill="#EB5128"/>
<path d="M50.89 99.0543L51.2793 101.961L53.7745 102.816L50.89 99.0543ZM64.3283 99.9715L64.388 102.86L67.0064 101.98L64.3283 99.9715ZM53.4475 99.9269L53.7745 102.816L56.3713 103.345L53.4475 99.9269ZM61.5897 100.497L61.7168 103.376L64.388 102.86L61.5897 100.497ZM46.2412 96.3577L44.2236 94.5615L46.7421 99.3161L46.2412 96.3577ZM56.1095 100.466L56.3713 103.345L59.0316 103.534L56.1095 100.466ZM58.8367 100.659L59.0316 103.534L61.7168 103.376L58.8367 100.659ZM48.4755 97.8601L46.2412 96.3577L48.923 100.79L48.4755 97.8601Z" fill="#DB241C"/>
<path d="M21.8999 52.8258L40.3231 86.9161L41.8387 89.3L21.8999 52.8258Z" fill="#EB5128"/>
<path d="M105.832 73.9161L69.6761 94.719L104.889 77.3854L105.832 73.9161ZM69.6029 97.8005L67.0127 99.0744L69.5334 100.731L69.6029 97.8005ZM50.8902 99.0543L48.4756 97.8601L51.2794 101.961L50.8902 99.0543ZM67.0127 99.0744L64.3284 99.9715L67.0065 101.98L67.0127 99.0744ZM53.4476 99.9269L50.8902 99.0543L53.7746 102.816L53.4476 99.9269Z" fill="#DB241C"/>
<path d="M21.8999 52.8258L41.8387 89.3L45.7148 93.2475L21.8999 52.8258Z" fill="#EB5128"/>
<path d="M40.3232 86.9161L40.9772 90.1476L42.4579 92.4863L40.3232 86.9161ZM64.3285 99.9715L61.5899 100.497L64.3882 102.86L64.3285 99.9715ZM69.6762 94.719L69.603 97.8005L104.889 77.3854L69.6762 94.719ZM56.1097 100.466L53.4477 99.9269L56.3715 103.345L56.1097 100.466ZM61.5899 100.497L58.8369 100.659L61.717 103.376L61.5899 100.497ZM58.8369 100.659L56.1097 100.466L59.0318 103.534L58.8369 100.659Z" fill="#DB241C"/>
<path d="M67.0195 96.0184L105.833 73.916L110.009 70.6576L67.0195 96.0184Z" fill="#EB5128"/>
<path d="M41.8389 89.3001L42.458 92.487L44.2239 94.5626L41.8389 89.3001Z" fill="#DB241C"/>
<path d="M21.8999 52.8258L45.7148 93.2475L55.8342 97.4377L21.8999 52.8258Z" fill="#EB5128"/>
<path d="M43.6475 91.4158L44.2238 94.5615L46.2414 96.3577L43.6475 91.4158ZM41.8388 89.3L40.3232 86.9161L42.4579 92.4863L41.8388 89.3ZM45.7149 93.2475L46.2414 96.3577L48.4757 97.8601L45.7149 93.2475ZM48.0052 94.7797L48.4757 97.8601L50.8902 99.0543L48.0052 94.7797ZM43.6475 91.4158L41.8388 89.3L44.2238 94.5615L43.6475 91.4158ZM67.0193 96.0184L67.0128 99.0744L69.603 97.8005L67.0193 96.0184ZM50.481 95.9979L50.8902 99.0543L53.4477 99.9269L50.481 95.9979ZM64.2657 96.9336L64.3285 99.9715L67.0128 99.0744L64.2657 96.9336ZM53.1038 96.8881L53.4477 99.9269L56.1097 100.466L53.1038 96.8881Z" fill="#DB241C"/>
<path d="M55.8345 97.4377L67.0195 96.0184L110.009 70.6576L55.8345 97.4377Z" fill="#EB5128"/>
<path d="M61.4562 97.47L61.5899 100.497L64.3285 99.9715L61.4562 97.47ZM45.7149 93.2475L43.6475 91.4158L46.2414 96.3578L45.7149 93.2475Z" fill="#DB241C"/>
<path d="M67.0195 96.0184L69.6764 94.719L105.833 73.9161L67.0195 96.0184Z" fill="#EB5128"/>
<path d="M55.8342 97.4377L56.1096 100.466L58.8369 100.659L55.8342 97.4377ZM58.6319 97.6351L58.8369 100.659L61.5898 100.497L58.6319 97.6351ZM48.0051 94.7798L45.7148 93.2475L48.4756 97.8601L48.0051 94.7798ZM69.6761 94.719L67.0193 96.0184L69.603 97.8005L69.6761 94.719ZM50.4809 95.9979L48.0051 94.7798L50.8902 99.0543L50.4809 95.9979Z" fill="#DB241C"/>
<path d="M41.8389 89.3001L43.6476 91.4163L45.715 93.2483L41.8389 89.3001Z" fill="#EB5128"/>
<path d="M67.0193 96.0184L64.2657 96.9337L67.0128 99.075L67.0193 96.0184ZM53.1038 96.8883L50.481 95.9979L53.4477 99.9277L53.1038 96.8883ZM64.2657 96.9337L61.4562 97.4703L64.3285 99.9722L64.2657 96.9337ZM55.8343 97.438L53.1038 96.8883L56.1097 100.467L55.8343 97.438ZM61.4562 97.4703L58.632 97.6355L61.5899 100.498L61.4562 97.4703ZM58.632 97.6355L55.8343 97.438L58.837 100.66L58.632 97.6355Z" fill="#DB241C"/>
<path d="M45.7148 93.2475L48.0051 94.7801L50.4809 95.9984L45.7148 93.2475ZM45.7148 93.2475L50.4809 95.9984L55.8342 97.4385L45.7148 93.2475ZM50.4809 95.9984L53.1038 96.8888L55.8342 97.4385L50.4809 95.9984ZM61.4561 97.4708L64.2656 96.9343L67.0193 96.019L61.4561 97.4708ZM55.8342 97.4385L61.4561 97.4708L67.0193 96.019L55.8342 97.4385ZM55.8342 97.4385L58.6319 97.636L61.4561 97.4708L55.8342 97.4385Z" fill="#EB5128"/>
<path d="M44.5081 43.3599L51.8847 59.179L48.5401 60.7386L42.6439 48.0941L42.5512 48.1373L39.9875 52.0975L38.6044 49.1314L41.3643 44.8258L44.5081 43.3599ZM61.8166 54.8111C61.0005 55.1853 60.1516 55.415 59.2698 55.5002C58.3931 55.583 57.5156 55.4625 56.6373 55.1385C55.759 54.8146 54.9131 54.2373 54.0995 53.4068C53.291 52.5738 52.5494 51.4338 51.8747 49.9868C51.2603 48.6558 50.8587 47.3981 50.67 46.2134C50.4839 45.0213 50.5011 43.9287 50.7214 42.9358C50.9468 41.9404 51.3647 41.0685 51.9748 40.32C52.5826 39.5664 53.3757 38.9615 54.3541 38.5053C55.4098 38.013 56.4379 37.7844 57.4384 37.8193C58.4366 37.8492 59.3436 38.1002 60.1593 38.5724C60.9802 39.0422 61.6451 39.6882 62.1539 40.5104L58.8557 42.0484C58.47 41.5575 57.9979 41.251 57.4395 41.129C56.8811 41.007 56.298 41.0876 55.6904 41.371C54.6605 41.8512 54.0867 42.6642 53.969 43.8099C53.8564 44.9533 54.1539 46.2972 54.8616 47.8417L54.9697 47.7913C54.9881 47.2122 55.1213 46.6642 55.3693 46.1474C55.62 45.623 55.962 45.1532 56.3953 44.7379C56.8314 44.3152 57.3378 43.9693 57.9145 43.7004C58.8517 43.2634 59.7892 43.0958 60.7269 43.1977C61.6622 43.2944 62.5199 43.628 63.3 44.1983C64.08 44.7687 64.7005 45.5482 65.1616 46.5369C65.661 47.608 65.8555 48.6771 65.745 49.7443C65.6397 50.809 65.252 51.786 64.5821 52.6751C63.9149 53.5567 62.993 54.2687 61.8166 54.8111ZM60.5765 52.192C61.0914 51.9519 61.4947 51.6134 61.7862 51.1765C62.0778 50.7397 62.241 50.2561 62.2758 49.7257C62.3106 49.1954 62.2056 48.6677 61.9606 48.1424C61.7157 47.6172 61.3801 47.2 60.9539 46.891C60.5328 46.5795 60.0638 46.3938 59.5469 46.334C59.03 46.2741 58.5141 46.3642 57.9991 46.6043C57.6129 46.7844 57.2886 47.0234 57.0263 47.3213C56.7691 47.6167 56.577 47.9508 56.4499 48.3236C56.3279 48.6939 56.2766 49.0814 56.2961 49.4861C56.3131 49.8857 56.4105 50.276 56.5882 50.657C56.8259 51.1668 57.1591 51.5788 57.5877 51.893C58.0215 52.2048 58.498 52.3932 59.0174 52.4583C59.5418 52.5209 60.0615 52.4321 60.5765 52.192ZM76.0059 48.1944C74.8164 48.7491 73.6681 49.0495 72.5612 49.0955C71.4569 49.1339 70.4849 48.9383 69.6451 48.5087C68.8053 48.079 68.186 47.4368 67.7874 46.582C67.4801 45.9229 67.3473 45.2482 67.389 44.5579C67.4335 43.8601 67.6305 43.2071 67.9801 42.599C68.3274 41.9857 68.7988 41.4775 69.3944 41.0743L69.344 40.9662C68.4203 41.19 67.5445 41.1 66.7167 40.6961C65.8865 40.2871 65.2697 39.65 64.8663 38.7849C64.4845 37.9661 64.3841 37.1258 64.5653 36.2639C64.744 35.3969 65.1653 34.5861 65.829 33.8315C66.4955 33.0694 67.3617 32.4397 68.4276 31.9427C69.4936 31.4456 70.5301 31.188 71.5372 31.1697C72.5495 31.1491 73.4451 31.349 74.2242 31.7693C75.0008 32.1846 75.5814 32.7978 75.966 33.609C76.3666 34.4817 76.453 35.3661 76.2252 36.2622C75.9974 37.1584 75.5085 37.8847 74.7587 38.4413L74.8091 38.5494C75.4905 38.357 76.1752 38.3262 76.863 38.4568C77.5536 38.5799 78.1804 38.8487 78.7436 39.2632C79.3095 39.6701 79.7487 40.2019 80.0612 40.8586C80.4547 41.7158 80.5461 42.6042 80.3354 43.5237C80.1247 44.4432 79.6471 45.3148 78.9027 46.1384C78.1611 46.9544 77.1955 47.6397 76.0059 48.1944ZM74.8606 45.7381C75.3909 45.4908 75.81 45.1794 76.1176 44.804C76.4229 44.4234 76.607 44.0116 76.67 43.5685C76.7356 43.1178 76.664 42.6685 76.4551 42.2205C76.2414 41.7621 75.9371 41.4119 75.5421 41.1698C75.1446 40.9226 74.7009 40.791 74.2107 40.775C73.7181 40.754 73.2144 40.8635 72.6994 41.1036C72.1896 41.3413 71.7819 41.6568 71.4763 42.0501C71.1683 42.4382 70.9813 42.864 70.9152 43.3273C70.852 43.7832 70.9272 44.2402 71.1409 44.6985C71.3498 45.1465 71.6454 45.4914 72.0277 45.7332C72.4076 45.9698 72.844 46.0923 73.3369 46.1007C73.8274 46.1039 74.3353 45.9831 74.8606 45.7381ZM71.5648 38.6705C72.0077 38.464 72.3596 38.1902 72.6206 37.849C72.8816 37.5079 73.0354 37.1321 73.0823 36.7216C73.1291 36.3111 73.0552 35.8973 72.8607 35.4802C72.6686 35.0682 72.4027 34.7534 72.0629 34.5356C71.7208 34.3128 71.3389 34.193 70.9174 34.1764C70.4935 34.1547 70.055 34.2495 69.6018 34.4608C69.1538 34.6697 68.7993 34.9447 68.5384 35.2858C68.275 35.6218 68.1187 35.9924 68.0695 36.3978C68.023 36.7956 68.0959 37.2005 68.288 37.6125C68.4825 38.0296 68.752 38.3521 69.0966 38.5802C69.4411 38.8082 69.8279 38.9319 70.257 38.9512C70.686 38.9706 71.122 38.877 71.5648 38.6705ZM90.3865 41.4887C89.197 42.0434 88.0487 42.3437 86.9417 42.3897C85.8375 42.4282 84.8654 42.2326 84.0256 41.8029C83.1858 41.3733 82.5666 40.731 82.168 39.8762C81.8606 39.2171 81.7278 38.5424 81.7696 37.8521C81.814 37.1543 82.0111 36.5013 82.3607 35.8932C82.7079 35.2799 83.1793 34.7717 83.775 34.3685L83.7246 34.2604C82.8008 34.4843 81.925 34.3943 81.0972 33.9904C80.267 33.5813 79.6502 32.9442 79.2468 32.0791C78.865 31.2603 78.7647 30.42 78.9458 29.5582C79.1246 28.6912 79.5458 27.8804 80.2096 27.1258C80.876 26.3636 81.7422 25.734 82.8082 25.2369C83.8741 24.7399 84.9106 24.4822 85.9178 24.464C86.93 24.4433 87.8257 24.6432 88.6047 25.0636C89.3814 25.4788 89.962 26.092 90.3465 26.9032C90.7472 27.7759 90.8336 28.6603 90.6057 29.5565C90.3779 30.4526 89.8891 31.179 89.1393 31.7355L89.1897 31.8436C89.8711 31.6513 90.5557 31.6204 91.2436 31.7511C91.9341 31.8741 92.561 32.1429 93.1242 32.5574C93.6901 32.9643 94.1293 33.4961 94.4418 34.1529C94.8352 35.0101 94.9266 35.8984 94.7159 36.818C94.5052 37.7375 94.0277 38.609 93.2833 39.4326C92.5416 40.2486 91.576 40.934 90.3865 41.4887ZM89.2411 39.0324C89.7715 38.785 90.1905 38.4737 90.4982 38.0982C90.8035 37.7177 90.9876 37.3058 91.0505 36.8627C91.1162 36.412 91.0446 35.9627 90.8357 35.5147C90.622 35.0564 90.3176 34.7062 89.9226 34.4641C89.5252 34.2168 89.0814 34.0852 88.5913 34.0693C88.0987 34.0482 87.5949 34.1577 87.08 34.3978C86.5702 34.6356 86.1625 34.9511 85.8569 35.3443C85.5489 35.7325 85.3618 36.1582 85.2958 36.6216C85.2325 37.0774 85.3077 37.5345 85.5214 37.9928C85.7303 38.4408 86.0259 38.7857 86.4083 39.0274C86.7882 39.264 87.2246 39.3865 87.7175 39.3949C88.208 39.3981 88.7159 39.2773 89.2411 39.0324ZM85.9454 31.9647C86.3883 31.7582 86.7402 31.4844 87.0011 31.1433C87.2621 30.8022 87.416 30.4264 87.4628 30.0158C87.5096 29.6053 87.4358 29.1915 87.2413 28.7744C87.0492 28.3624 86.7832 28.0476 86.4435 27.8299C86.1013 27.607 85.7195 27.4873 85.298 27.4707C84.8741 27.4489 84.4355 27.5437 83.9824 27.755C83.5344 27.9639 83.1799 28.2389 82.9189 28.5801C82.6556 28.916 82.4993 29.2867 82.4501 29.692C82.4036 30.0899 82.4764 30.4947 82.6685 30.9067C82.863 31.3238 83.1326 31.6464 83.4771 31.8744C83.8217 32.1024 84.2085 32.2261 84.6375 32.2455C85.0666 32.2648 85.5025 32.1712 85.9454 31.9647Z" fill="white"/>
</g>
<defs>
<filter id="filter0_d_62_7774" x="0" y="0.596748" width="124.775" height="122.938" filterUnits="userSpaceOnUse" color-interpolation-filters="sRGB">
<feFlood flood-opacity="0" result="BackgroundImageFix"/>
<feColorMatrix in="SourceAlpha" type="matrix" values="0 0 0 0 0 0 0 0 0 0 0 0 0 0 0 0 0 0 127 0" result="hardAlpha"/>
<feOffset dx="-5" dy="5"/>
<feGaussianBlur stdDeviation="7.5"/>
<feComposite in2="hardAlpha" operator="out"/>
<feColorMatrix type="matrix" values="0 0 0 0 0.858824 0 0 0 0 0.141176 0 0 0 0 0.109804 0 0 0 0.25 0"/>
<feBlend mode="normal" in2="BackgroundImageFix" result="effect1_dropShadow_62_7774"/>
<feBlend mode="normal" in="SourceGraphic" in2="effect1_dropShadow_62_7774" result="shape"/>
</filter>
</defs>
</svg>
