<svg width="28" height="36" viewBox="0 0 28 36" fill="none" xmlns="http://www.w3.org/2000/svg">
<g clip-path="url(#clip0_260_1766)">
<g filter="url(#filter0_d_260_1766)">
<path d="M3.75 15.75H14.25V17.5H3.75V15.75ZM2 11.375H10.75V13.125H2V11.375Z" fill="white"/>
</g>
<g filter="url(#filter1_d_260_1766)">
<path d="M26.4291 16.2802L23.8041 10.1552C23.7367 9.99782 23.6246 9.86364 23.4816 9.76937C23.3387 9.67511 23.1712 9.62491 22.9999 9.625H20.3749V7.875C20.3749 7.64294 20.2827 7.42038 20.1186 7.25628C19.9546 7.09219 19.732 7 19.4999 7H5.49993V8.75H18.6249V19.7365C18.2262 19.968 17.8773 20.2762 17.5983 20.6432C17.3192 21.0102 17.1156 21.4289 16.9992 21.875H11.5007C11.2877 21.0502 10.7812 20.3313 10.0762 19.8532C9.37111 19.3751 8.51589 19.1706 7.6708 19.2779C6.82571 19.3852 6.04879 19.7971 5.48564 20.4363C4.9225 21.0755 4.61182 21.8981 4.61182 22.75C4.61182 23.6019 4.9225 24.4245 5.48564 25.0637C6.04879 25.7029 6.82571 26.1148 7.6708 26.2221C8.51589 26.3294 9.37111 26.1249 10.0762 25.6468C10.7812 25.1687 11.2877 24.4498 11.5007 23.625H16.9992C17.1895 24.376 17.6248 25.042 18.2362 25.5178C18.8476 25.9935 19.6002 26.2519 20.3749 26.2519C21.1496 26.2519 21.9022 25.9935 22.5136 25.5178C23.125 25.042 23.5603 24.376 23.7507 23.625H25.6249C25.857 23.625 26.0796 23.5328 26.2437 23.3687C26.4077 23.2046 26.4999 22.9821 26.4999 22.75V16.625C26.5 16.5065 26.4759 16.3892 26.4291 16.2802ZM8.12493 24.5C7.77881 24.5 7.44047 24.3974 7.15268 24.2051C6.86489 24.0128 6.64059 23.7395 6.50814 23.4197C6.37568 23.0999 6.34103 22.7481 6.40855 22.4086C6.47608 22.0691 6.64275 21.7573 6.88749 21.5126C7.13223 21.2678 7.44405 21.1011 7.78352 21.0336C8.12299 20.9661 8.47485 21.0008 8.79462 21.1332C9.11439 21.2657 9.38771 21.49 9.58 21.7778C9.77229 22.0655 9.87493 22.4039 9.87493 22.75C9.87446 23.214 9.68994 23.6588 9.36185 23.9869C9.03376 24.315 8.58891 24.4995 8.12493 24.5ZM20.3749 11.375H22.4224L24.2984 15.75H20.3749V11.375ZM20.3749 24.5C20.0288 24.5 19.6905 24.3974 19.4027 24.2051C19.1149 24.0128 18.8906 23.7395 18.7581 23.4197C18.6257 23.0999 18.591 22.7481 18.6586 22.4086C18.7261 22.0691 18.8927 21.7573 19.1375 21.5126C19.3822 21.2678 19.6941 21.1011 20.0335 21.0336C20.373 20.9661 20.7249 21.0008 21.0446 21.1332C21.3644 21.2657 21.6377 21.49 21.83 21.7778C22.0223 22.0655 22.1249 22.4039 22.1249 22.75C22.1245 23.214 21.9399 23.6588 21.6119 23.9869C21.2838 24.315 20.8389 24.4995 20.3749 24.5ZM24.7499 21.875H23.7507C23.5579 21.1255 23.1219 20.4612 22.511 19.9861C21.9001 19.511 21.1488 19.2522 20.3749 19.25V17.5H24.7499V21.875Z" fill="white"/>
</g>
</g>
<defs>
<filter id="filter0_d_260_1766" x="-2" y="11.375" width="20.25" height="14.125" filterUnits="userSpaceOnUse" color-interpolation-filters="sRGB">
<feFlood flood-opacity="0" result="BackgroundImageFix"/>
<feColorMatrix in="SourceAlpha" type="matrix" values="0 0 0 0 0 0 0 0 0 0 0 0 0 0 0 0 0 0 127 0" result="hardAlpha"/>
<feOffset dy="4"/>
<feGaussianBlur stdDeviation="2"/>
<feComposite in2="hardAlpha" operator="out"/>
<feColorMatrix type="matrix" values="0 0 0 0 0 0 0 0 0 0 0 0 0 0 0 0 0 0 0.25 0"/>
<feBlend mode="normal" in2="BackgroundImageFix" result="effect1_dropShadow_260_1766"/>
<feBlend mode="normal" in="SourceGraphic" in2="effect1_dropShadow_260_1766" result="shape"/>
</filter>
<filter id="filter1_d_260_1766" x="0.611816" y="7" width="29.8882" height="27.2518" filterUnits="userSpaceOnUse" color-interpolation-filters="sRGB">
<feFlood flood-opacity="0" result="BackgroundImageFix"/>
<feColorMatrix in="SourceAlpha" type="matrix" values="0 0 0 0 0 0 0 0 0 0 0 0 0 0 0 0 0 0 127 0" result="hardAlpha"/>
<feOffset dy="4"/>
<feGaussianBlur stdDeviation="2"/>
<feComposite in2="hardAlpha" operator="out"/>
<feColorMatrix type="matrix" values="0 0 0 0 0 0 0 0 0 0 0 0 0 0 0 0 0 0 0.25 0"/>
<feBlend mode="normal" in2="BackgroundImageFix" result="effect1_dropShadow_260_1766"/>
<feBlend mode="normal" in="SourceGraphic" in2="effect1_dropShadow_260_1766" result="shape"/>
</filter>
<clipPath id="clip0_260_1766">
<rect width="28" height="35" fill="white" transform="translate(0 0.5)"/>
</clipPath>
</defs>
</svg>
