<svg width="45" height="45" viewBox="0 0 45 45" fill="none" xmlns="http://www.w3.org/2000/svg">
<path d="M19.6875 33.772V20.5664L5.625 13.5352V32.8711L17.5781 38.8696L16.897 41.6602L2.8125 34.6289V10.3711L21.0938 1.25244L39.375 10.3711V16.3037C38.3496 16.4648 37.4121 16.7944 36.5625 17.2925V13.5352L22.5 20.5664V30.9595L19.6875 33.772ZM16.5674 6.63574L29.3994 13.9746L34.8267 11.25L21.0938 4.37256L16.5674 6.63574ZM21.0938 18.1274L26.3672 15.4907L13.5352 8.15186L7.36084 11.25L21.0938 18.1274ZM40.6055 19.6875C41.2207 19.6875 41.792 19.7974 42.3193 20.0171C42.8467 20.2368 43.3154 20.5371 43.7256 20.918C44.1357 21.2988 44.4434 21.7603 44.6484 22.3022C44.8535 22.8442 44.9707 23.4229 45 24.0381C45 24.6094 44.8901 25.166 44.6704 25.708C44.4507 26.25 44.1357 26.7261 43.7256 27.1362L27.9712 42.8906L19.6875 44.9561L21.7529 36.6724L37.5073 20.9399C37.9321 20.5151 38.4082 20.2002 38.9355 19.9951C39.4629 19.79 40.0195 19.6875 40.6055 19.6875ZM41.7261 25.1587C42.0337 24.8511 42.1875 24.4775 42.1875 24.0381C42.1875 23.584 42.041 23.2178 41.748 22.9395C41.4551 22.6611 41.0742 22.5146 40.6055 22.5C40.4004 22.5 40.2026 22.5293 40.0122 22.5879C39.8218 22.6465 39.6533 22.7563 39.5068 22.9175L24.3018 38.1226L23.5547 41.0889L26.521 40.3418L41.7261 25.1587Z" fill="#E39B52"/>
</svg>
