<svg width="594" height="500" viewBox="0 0 594 500" fill="none" xmlns="http://www.w3.org/2000/svg">
<rect width="594" height="500" rx="30" fill="url(#paint0_linear_92_576)"/>
<path d="M147.348 33.512V34.232C146.58 34.256 145.992 34.352 145.584 34.52C145.2 34.664 144.948 34.952 144.828 35.384C144.708 35.792 144.648 36.44 144.648 37.328V55.184C144.648 56.048 144.708 56.696 144.828 57.128C144.972 57.56 145.236 57.848 145.62 57.992C146.004 58.136 146.58 58.232 147.348 58.28V59C146.7 58.952 145.884 58.928 144.9 58.928C143.916 58.904 142.92 58.892 141.912 58.892C140.76 58.892 139.668 58.904 138.636 58.928C137.628 58.928 136.824 58.952 136.224 59V58.28C136.992 58.232 137.568 58.136 137.952 57.992C138.336 57.848 138.588 57.56 138.708 57.128C138.852 56.696 138.924 56.048 138.924 55.184V37.328C138.924 36.44 138.852 35.792 138.708 35.384C138.588 34.952 138.324 34.664 137.916 34.52C137.532 34.352 136.968 34.256 136.224 34.232V33.512C136.824 33.536 137.628 33.56 138.636 33.584C139.668 33.608 140.76 33.62 141.912 33.62C142.92 33.62 143.916 33.608 144.9 33.584C145.884 33.56 146.7 33.536 147.348 33.512ZM145.692 45.392C147.612 45.392 149.28 45.536 150.696 45.824C152.136 46.088 153.288 46.58 154.152 47.3C155.04 47.996 155.64 49.028 155.952 50.396L156.996 55.22C157.188 56.204 157.404 56.888 157.644 57.272C157.884 57.632 158.244 57.812 158.724 57.812C159.012 57.788 159.252 57.716 159.444 57.596C159.66 57.452 159.888 57.248 160.128 56.984L160.632 57.416C159.984 58.136 159.288 58.664 158.544 59C157.8 59.336 156.9 59.504 155.844 59.504C154.548 59.504 153.48 59.24 152.64 58.712C151.8 58.16 151.248 57.128 150.984 55.616L150.012 50.108C149.844 49.148 149.592 48.368 149.256 47.768C148.944 47.168 148.464 46.724 147.816 46.436C147.168 46.148 146.268 46.004 145.116 46.004H143.712V45.392H145.692ZM144.504 46.004V45.392C145.536 45.368 146.472 45.092 147.312 44.564C148.152 44.012 149.052 43.172 150.012 42.044L152.136 39.488C153.072 38.408 153.612 37.484 153.756 36.716C153.9 35.924 153.744 35.312 153.288 34.88C152.832 34.448 152.124 34.22 151.164 34.196V33.512C151.74 33.536 152.304 33.56 152.856 33.584C153.408 33.584 153.972 33.596 154.548 33.62C155.124 33.62 155.76 33.62 156.456 33.62C157.176 33.62 157.812 33.608 158.364 33.584C158.94 33.56 159.444 33.536 159.876 33.512V34.196C159.084 34.364 158.256 34.7 157.392 35.204C156.528 35.708 155.604 36.524 154.62 37.652L147.492 46.004H144.504ZM166.777 59.252C165.697 59.252 164.797 59.048 164.077 58.64C163.357 58.232 162.829 57.692 162.493 57.02C162.157 56.324 161.989 55.568 161.989 54.752C161.989 53.72 162.217 52.88 162.673 52.232C163.153 51.584 163.765 51.056 164.509 50.648C165.253 50.24 166.033 49.904 166.849 49.64C167.689 49.376 168.481 49.124 169.225 48.884C169.993 48.62 170.605 48.32 171.061 47.984C171.541 47.624 171.781 47.168 171.781 46.616V43.808C171.781 43.184 171.673 42.632 171.457 42.152C171.265 41.648 170.953 41.264 170.521 41C170.113 40.736 169.573 40.604 168.901 40.604C168.421 40.604 167.941 40.676 167.461 40.82C166.981 40.94 166.585 41.156 166.273 41.468C166.945 41.708 167.461 42.08 167.821 42.584C168.205 43.064 168.397 43.616 168.397 44.24C168.397 45.056 168.109 45.704 167.533 46.184C166.981 46.664 166.321 46.904 165.553 46.904C164.689 46.904 164.029 46.64 163.573 46.112C163.141 45.56 162.925 44.9 162.925 44.132C162.925 43.436 163.093 42.86 163.429 42.404C163.789 41.948 164.281 41.516 164.905 41.108C165.577 40.724 166.381 40.424 167.317 40.208C168.277 39.992 169.309 39.884 170.413 39.884C171.517 39.884 172.513 40.004 173.401 40.244C174.289 40.46 175.033 40.868 175.633 41.468C176.185 42.02 176.545 42.704 176.713 43.52C176.881 44.312 176.965 45.32 176.965 46.544V56.336C176.965 56.936 177.025 57.356 177.145 57.596C177.265 57.812 177.469 57.92 177.757 57.92C177.973 57.92 178.177 57.86 178.369 57.74C178.585 57.62 178.813 57.476 179.053 57.308L179.413 57.92C178.909 58.352 178.321 58.688 177.649 58.928C177.001 59.144 176.269 59.252 175.453 59.252C174.565 59.252 173.857 59.132 173.329 58.892C172.801 58.628 172.417 58.28 172.177 57.848C171.961 57.416 171.853 56.912 171.853 56.336C171.277 57.248 170.581 57.968 169.765 58.496C168.949 59 167.953 59.252 166.777 59.252ZM169.333 56.948C169.813 56.948 170.245 56.84 170.629 56.624C171.037 56.384 171.421 56 171.781 55.472V48.092C171.565 48.452 171.265 48.776 170.881 49.064C170.497 49.352 170.089 49.652 169.657 49.964C169.225 50.252 168.805 50.576 168.397 50.936C168.013 51.296 167.701 51.74 167.461 52.268C167.221 52.796 167.101 53.432 167.101 54.176C167.101 55.112 167.305 55.808 167.713 56.264C168.121 56.72 168.661 56.948 169.333 56.948ZM197.038 39.884C198.214 39.884 199.066 40.16 199.594 40.712C200.146 41.264 200.422 41.936 200.422 42.728C200.422 43.568 200.17 44.24 199.666 44.744C199.162 45.248 198.514 45.5 197.722 45.5C197.266 45.5 196.81 45.404 196.354 45.212C195.898 45.02 195.526 44.732 195.238 44.348C194.95 43.94 194.806 43.436 194.806 42.836C194.806 42.476 194.902 42.116 195.094 41.756C195.286 41.396 195.598 41.096 196.03 40.856C195.454 40.928 194.998 41.144 194.662 41.504C194.35 41.84 194.086 42.332 193.87 42.98C193.678 43.604 193.438 44.396 193.15 45.356C192.958 46.028 192.73 46.64 192.466 47.192C192.226 47.72 191.878 48.176 191.422 48.56C190.99 48.92 190.378 49.184 189.586 49.352L189.73 49.1C191.554 48.86 193.054 48.92 194.23 49.28C195.43 49.64 196.342 50.24 196.966 51.08C197.446 51.704 197.818 52.472 198.082 53.384C198.346 54.296 198.682 55.256 199.09 56.264C199.354 56.888 199.618 57.356 199.882 57.668C200.17 57.98 200.614 58.172 201.214 58.244V59C200.782 59.072 200.35 59.12 199.918 59.144C199.486 59.192 199.066 59.216 198.658 59.216C197.266 59.216 196.162 58.952 195.346 58.424C194.53 57.872 193.966 56.96 193.654 55.688C193.582 55.352 193.462 54.908 193.294 54.356C193.15 53.78 192.946 53.192 192.682 52.592C192.442 51.968 192.154 51.452 191.818 51.044C191.41 50.54 190.882 50.18 190.234 49.964C189.586 49.748 188.77 49.688 187.786 49.784V49.136C188.914 49.064 189.778 48.872 190.378 48.56C190.978 48.224 191.434 47.744 191.746 47.12C192.058 46.496 192.346 45.704 192.61 44.744C192.898 43.808 193.186 42.968 193.474 42.224C193.762 41.48 194.17 40.904 194.698 40.496C195.25 40.088 196.03 39.884 197.038 39.884ZM190.09 40.424V41.18C189.298 41.18 188.734 41.36 188.398 41.72C188.086 42.08 187.93 42.764 187.93 43.772V55.652C187.93 56.66 188.086 57.344 188.398 57.704C188.734 58.064 189.298 58.244 190.09 58.244V59C189.634 58.976 188.938 58.952 188.002 58.928C187.066 58.88 186.154 58.856 185.266 58.856C184.354 58.856 183.43 58.88 182.494 58.928C181.582 58.952 180.898 58.976 180.442 59V58.244C181.282 58.244 181.87 58.064 182.206 57.704C182.566 57.344 182.746 56.66 182.746 55.652V43.772C182.746 42.764 182.566 42.08 182.206 41.72C181.87 41.36 181.282 41.18 180.442 41.18V40.424C180.922 40.448 181.642 40.484 182.602 40.532C183.586 40.556 184.522 40.568 185.41 40.568C186.322 40.568 187.222 40.556 188.11 40.532C188.998 40.484 189.658 40.448 190.09 40.424ZM235.834 40.388V41.144C235.258 41.144 234.814 41.228 234.502 41.396C234.19 41.54 233.974 41.816 233.854 42.224C233.734 42.608 233.674 43.172 233.674 43.916V55.472C233.674 56.216 233.734 56.792 233.854 57.2C233.974 57.584 234.19 57.86 234.502 58.028C234.814 58.172 235.258 58.244 235.834 58.244V59C235.33 58.976 234.658 58.952 233.818 58.928C232.978 58.88 232.102 58.856 231.19 58.856C230.206 58.856 229.246 58.88 228.31 58.928C227.374 58.952 226.642 58.976 226.114 59V58.244C226.738 58.244 227.218 58.172 227.554 58.028C227.914 57.86 228.154 57.584 228.274 57.2C228.418 56.792 228.49 56.216 228.49 55.472V42.476L221.614 59.18H221.038L214.162 42.692V53.888C214.162 54.824 214.246 55.616 214.414 56.264C214.582 56.888 214.906 57.368 215.386 57.704C215.866 58.04 216.574 58.232 217.51 58.28V59C217.03 58.952 216.466 58.928 215.818 58.928C215.194 58.904 214.522 58.892 213.802 58.892C213.298 58.892 212.77 58.904 212.218 58.928C211.69 58.928 211.246 58.952 210.886 59V58.28C211.582 58.232 212.11 58.028 212.47 57.668C212.83 57.284 213.07 56.756 213.19 56.084C213.31 55.412 213.37 54.608 213.37 53.672V44.204C213.37 43.316 213.31 42.668 213.19 42.26C213.07 41.828 212.83 41.54 212.47 41.396C212.11 41.228 211.582 41.132 210.886 41.108V40.388C211.246 40.412 211.69 40.436 212.218 40.46C212.77 40.484 213.298 40.496 213.802 40.496C215.65 40.496 217.258 40.46 218.626 40.388L223.738 53.24L222.442 55.256L228.49 40.496C228.922 40.496 229.402 40.508 229.93 40.532C230.458 40.532 230.95 40.532 231.406 40.532C232.27 40.532 233.098 40.52 233.89 40.496C234.706 40.448 235.354 40.412 235.834 40.388ZM247.432 40.424V41.18C246.592 41.18 245.992 41.36 245.632 41.72C245.296 42.08 245.128 42.764 245.128 43.772V56.408C245.128 57.128 245.224 57.62 245.416 57.884C245.608 58.124 245.992 58.244 246.568 58.244C247.624 58.244 248.428 58.028 248.98 57.596C249.556 57.164 249.952 56.6 250.168 55.904C250.384 55.184 250.492 54.428 250.492 53.636C250.492 51.956 250.096 50.744 249.304 50C248.536 49.256 247.204 48.884 245.308 48.884C244.924 48.884 244.516 48.896 244.084 48.92C243.652 48.944 243.28 48.956 242.968 48.956L242.896 48.236C243.832 48.236 244.684 48.224 245.452 48.2C246.244 48.176 246.964 48.164 247.612 48.164C250.516 48.164 252.604 48.656 253.876 49.64C255.172 50.624 255.82 51.848 255.82 53.312C255.82 54.2 255.532 55.088 254.956 55.976C254.404 56.84 253.48 57.56 252.184 58.136C250.912 58.712 249.184 59 247 59C246.352 59 245.656 58.976 244.912 58.928C244.192 58.88 243.4 58.856 242.536 58.856C241.696 58.856 240.808 58.88 239.872 58.928C238.96 58.952 238.288 58.976 237.856 59V58.244C238.624 58.244 239.164 58.064 239.476 57.704C239.788 57.344 239.944 56.66 239.944 55.652V43.772C239.944 42.764 239.8 42.08 239.512 41.72C239.224 41.36 238.72 41.18 238 41.18V40.424C238.408 40.448 239.032 40.484 239.872 40.532C240.712 40.556 241.576 40.568 242.464 40.568C243.376 40.568 244.312 40.556 245.272 40.532C246.232 40.484 246.952 40.448 247.432 40.424ZM265.792 40.424V41.18C265 41.18 264.436 41.36 264.1 41.72C263.788 42.08 263.632 42.764 263.632 43.772V55.652C263.632 56.66 263.8 57.344 264.136 57.704C264.496 58.064 265.096 58.244 265.936 58.244V59C265.456 58.976 264.724 58.952 263.74 58.928C262.78 58.88 261.844 58.856 260.932 58.856C260.092 58.856 259.216 58.88 258.304 58.928C257.392 58.952 256.72 58.976 256.288 59V58.244C257.08 58.244 257.632 58.064 257.944 57.704C258.28 57.344 258.448 56.66 258.448 55.652V43.772C258.448 42.764 258.28 42.08 257.944 41.72C257.632 41.36 257.08 41.18 256.288 41.18V40.424C256.744 40.448 257.44 40.484 258.376 40.532C259.336 40.556 260.26 40.568 261.148 40.568C262.036 40.568 262.912 40.556 263.776 40.532C264.664 40.484 265.336 40.448 265.792 40.424ZM283.376 39.992V61.952C283.376 63.08 283.664 63.824 284.24 64.184C284.816 64.568 285.608 64.76 286.616 64.76V65.516C285.992 65.492 285.128 65.456 284.024 65.408C282.944 65.384 281.792 65.372 280.568 65.372C279.68 65.372 278.804 65.384 277.94 65.408C277.1 65.456 276.464 65.492 276.032 65.516V64.76C276.824 64.76 277.376 64.592 277.688 64.256C278.024 63.92 278.192 63.272 278.192 62.312V44.312C278.192 43.232 278.024 42.44 277.688 41.936C277.352 41.408 276.752 41.144 275.888 41.144V40.388C276.656 40.46 277.4 40.496 278.12 40.496C279.104 40.496 280.04 40.46 280.928 40.388C281.816 40.292 282.632 40.16 283.376 39.992ZM288.956 39.884C290.18 39.884 291.272 40.22 292.232 40.892C293.192 41.54 293.96 42.536 294.536 43.88C295.112 45.2 295.4 46.856 295.4 48.848C295.4 50.6 295.196 52.136 294.788 53.456C294.404 54.776 293.84 55.892 293.096 56.804C292.376 57.692 291.5 58.364 290.468 58.82C289.46 59.276 288.32 59.504 287.048 59.504C286.112 59.504 285.26 59.336 284.492 59C283.724 58.688 283.136 58.232 282.728 57.632L283.088 57.164C283.328 57.596 283.664 57.932 284.096 58.172C284.552 58.412 285.068 58.532 285.644 58.532C286.724 58.532 287.576 58.172 288.2 57.452C288.824 56.708 289.268 55.676 289.532 54.356C289.82 53.012 289.964 51.416 289.964 49.568C289.964 47.504 289.832 45.884 289.568 44.708C289.304 43.532 288.944 42.692 288.488 42.188C288.032 41.684 287.48 41.432 286.832 41.432C285.968 41.432 285.176 41.768 284.456 42.44C283.76 43.112 283.364 44.072 283.268 45.32L283.088 44.06C283.52 42.692 284.252 41.66 285.284 40.964C286.34 40.244 287.564 39.884 288.956 39.884ZM302.586 59.252C301.506 59.252 300.606 59.048 299.886 58.64C299.166 58.232 298.638 57.692 298.302 57.02C297.966 56.324 297.798 55.568 297.798 54.752C297.798 53.72 298.026 52.88 298.482 52.232C298.962 51.584 299.574 51.056 300.318 50.648C301.062 50.24 301.842 49.904 302.658 49.64C303.498 49.376 304.29 49.124 305.034 48.884C305.802 48.62 306.414 48.32 306.87 47.984C307.35 47.624 307.59 47.168 307.59 46.616V43.808C307.59 43.184 307.482 42.632 307.266 42.152C307.074 41.648 306.762 41.264 306.33 41C305.922 40.736 305.382 40.604 304.71 40.604C304.23 40.604 303.75 40.676 303.27 40.82C302.79 40.94 302.394 41.156 302.082 41.468C302.754 41.708 303.27 42.08 303.63 42.584C304.014 43.064 304.206 43.616 304.206 44.24C304.206 45.056 303.918 45.704 303.342 46.184C302.79 46.664 302.13 46.904 301.362 46.904C300.498 46.904 299.838 46.64 299.382 46.112C298.95 45.56 298.734 44.9 298.734 44.132C298.734 43.436 298.902 42.86 299.238 42.404C299.598 41.948 300.09 41.516 300.714 41.108C301.386 40.724 302.19 40.424 303.126 40.208C304.086 39.992 305.118 39.884 306.222 39.884C307.326 39.884 308.322 40.004 309.21 40.244C310.098 40.46 310.842 40.868 311.442 41.468C311.994 42.02 312.354 42.704 312.522 43.52C312.69 44.312 312.774 45.32 312.774 46.544V56.336C312.774 56.936 312.834 57.356 312.954 57.596C313.074 57.812 313.278 57.92 313.566 57.92C313.782 57.92 313.986 57.86 314.178 57.74C314.394 57.62 314.622 57.476 314.862 57.308L315.222 57.92C314.718 58.352 314.13 58.688 313.458 58.928C312.81 59.144 312.078 59.252 311.262 59.252C310.374 59.252 309.666 59.132 309.138 58.892C308.61 58.628 308.226 58.28 307.986 57.848C307.77 57.416 307.662 56.912 307.662 56.336C307.086 57.248 306.39 57.968 305.574 58.496C304.758 59 303.762 59.252 302.586 59.252ZM305.142 56.948C305.622 56.948 306.054 56.84 306.438 56.624C306.846 56.384 307.23 56 307.59 55.472V48.092C307.374 48.452 307.074 48.776 306.69 49.064C306.306 49.352 305.898 49.652 305.466 49.964C305.034 50.252 304.614 50.576 304.206 50.936C303.822 51.296 303.51 51.74 303.27 52.268C303.03 52.796 302.91 53.432 302.91 54.176C302.91 55.112 303.114 55.808 303.522 56.264C303.93 56.72 304.47 56.948 305.142 56.948ZM334.683 30.74L335.223 30.848C334.983 32.12 334.647 33.176 334.215 34.016C333.807 34.832 333.339 35.444 332.811 35.852C332.331 36.26 331.743 36.572 331.047 36.788C330.351 36.98 329.547 37.1 328.635 37.148C328.275 37.172 327.783 37.208 327.159 37.256C326.559 37.28 325.815 37.34 324.927 37.436C323.703 37.58 322.695 37.82 321.903 38.156C321.111 38.468 320.463 38.948 319.959 39.596C319.479 40.244 319.083 41.132 318.771 42.26C318.483 43.388 318.231 44.828 318.015 46.58L320.751 47.228L317.619 48.704C317.763 46.808 318.243 45.284 319.059 44.132C319.899 42.98 320.967 42.14 322.263 41.612C323.559 41.084 324.975 40.82 326.511 40.82C328.263 40.82 329.751 41.156 330.975 41.828C332.223 42.5 333.183 43.508 333.855 44.852C334.527 46.172 334.863 47.852 334.863 49.892C334.863 52.052 334.479 53.852 333.711 55.292C332.943 56.708 331.875 57.764 330.507 58.46C329.163 59.156 327.579 59.504 325.755 59.504C324.147 59.504 322.803 59.252 321.723 58.748C320.643 58.244 319.779 57.512 319.131 56.552C318.483 55.592 318.003 54.392 317.691 52.952C317.403 51.512 317.259 49.856 317.259 47.984C317.259 47.336 317.283 46.568 317.331 45.68C317.379 44.792 317.463 43.856 317.583 42.872C317.727 41.888 317.931 40.904 318.195 39.92C318.459 38.936 318.795 38.024 319.203 37.184C319.611 36.344 320.127 35.636 320.751 35.06C321.303 34.532 321.951 34.124 322.695 33.836C323.439 33.548 324.279 33.344 325.215 33.224C326.247 33.104 327.195 33.032 328.059 33.008C328.947 32.96 329.691 32.924 330.291 32.9C331.515 32.852 332.439 32.66 333.063 32.324C333.711 31.988 334.251 31.46 334.683 30.74ZM326.151 41.54C325.527 41.54 324.951 41.804 324.423 42.332C323.895 42.86 323.463 43.736 323.127 44.96C322.815 46.184 322.659 47.828 322.659 49.892C322.659 51.956 322.815 53.648 323.127 54.968C323.463 56.288 323.895 57.26 324.423 57.884C324.951 58.484 325.515 58.784 326.115 58.784C326.715 58.784 327.219 58.556 327.627 58.1C328.059 57.644 328.395 57.008 328.635 56.192C328.899 55.352 329.091 54.392 329.211 53.312C329.355 52.208 329.427 51.02 329.427 49.748C329.427 46.772 329.115 44.66 328.491 43.412C327.867 42.164 327.087 41.54 326.151 41.54ZM346.351 39.884C348.103 39.884 349.639 40.208 350.959 40.856C352.279 41.504 353.311 42.548 354.055 43.988C354.799 45.428 355.171 47.336 355.171 49.712C355.171 52.088 354.799 53.996 354.055 55.436C353.311 56.852 352.279 57.884 350.959 58.532C349.639 59.18 348.103 59.504 346.351 59.504C344.647 59.504 343.123 59.18 341.779 58.532C340.459 57.884 339.415 56.852 338.647 55.436C337.903 53.996 337.531 52.088 337.531 49.712C337.531 47.336 337.903 45.428 338.647 43.988C339.415 42.548 340.459 41.504 341.779 40.856C343.123 40.208 344.647 39.884 346.351 39.884ZM346.351 40.604C345.391 40.604 344.587 41.324 343.939 42.764C343.291 44.18 342.967 46.496 342.967 49.712C342.967 52.928 343.291 55.244 343.939 56.66C344.587 58.076 345.391 58.784 346.351 58.784C347.335 58.784 348.139 58.076 348.763 56.66C349.411 55.244 349.735 52.928 349.735 49.712C349.735 46.496 349.411 44.18 348.763 42.764C348.139 41.324 347.335 40.604 346.351 40.604ZM376.607 40.424C376.511 41.432 376.439 42.404 376.391 43.34C376.367 44.252 376.355 44.96 376.355 45.464C376.355 45.92 376.367 46.376 376.391 46.832C376.415 47.264 376.439 47.624 376.463 47.912H375.635C375.347 46.184 374.951 44.828 374.447 43.844C373.943 42.86 373.379 42.164 372.755 41.756C372.155 41.348 371.507 41.144 370.811 41.144H369.623V55.292C369.623 56.468 369.923 57.26 370.523 57.668C371.147 58.052 371.975 58.244 373.007 58.244V59C372.407 58.976 371.567 58.952 370.487 58.928C369.431 58.88 368.291 58.856 367.067 58.856C365.867 58.856 364.715 58.88 363.611 58.928C362.531 58.952 361.679 58.976 361.055 59V58.244C362.135 58.244 362.963 58.088 363.539 57.776C364.139 57.44 364.439 56.684 364.439 55.508V41.144H363.107C362.459 41.144 361.835 41.348 361.235 41.756C360.635 42.164 360.095 42.86 359.615 43.844C359.159 44.828 358.775 46.184 358.463 47.912H357.635C357.683 47.624 357.707 47.264 357.707 46.832C357.731 46.4 357.743 45.944 357.743 45.464C357.743 44.96 357.719 44.252 357.671 43.34C357.647 42.404 357.587 41.432 357.491 40.424H361.307C361.979 40.424 362.831 40.448 363.863 40.496C364.895 40.52 365.939 40.532 366.995 40.532C368.099 40.532 369.167 40.52 370.199 40.496C371.255 40.448 372.119 40.424 372.791 40.424H376.607ZM383.375 59.252C382.295 59.252 381.395 59.048 380.675 58.64C379.955 58.232 379.427 57.692 379.091 57.02C378.755 56.324 378.587 55.568 378.587 54.752C378.587 53.72 378.815 52.88 379.271 52.232C379.751 51.584 380.363 51.056 381.107 50.648C381.851 50.24 382.631 49.904 383.447 49.64C384.287 49.376 385.079 49.124 385.823 48.884C386.591 48.62 387.203 48.32 387.659 47.984C388.139 47.624 388.379 47.168 388.379 46.616V43.808C388.379 43.184 388.271 42.632 388.055 42.152C387.863 41.648 387.551 41.264 387.119 41C386.711 40.736 386.171 40.604 385.499 40.604C385.019 40.604 384.539 40.676 384.059 40.82C383.579 40.94 383.183 41.156 382.871 41.468C383.543 41.708 384.059 42.08 384.419 42.584C384.803 43.064 384.995 43.616 384.995 44.24C384.995 45.056 384.707 45.704 384.131 46.184C383.579 46.664 382.919 46.904 382.151 46.904C381.287 46.904 380.627 46.64 380.171 46.112C379.739 45.56 379.523 44.9 379.523 44.132C379.523 43.436 379.691 42.86 380.027 42.404C380.387 41.948 380.879 41.516 381.503 41.108C382.175 40.724 382.979 40.424 383.915 40.208C384.875 39.992 385.907 39.884 387.011 39.884C388.115 39.884 389.111 40.004 389.999 40.244C390.887 40.46 391.631 40.868 392.231 41.468C392.783 42.02 393.143 42.704 393.311 43.52C393.479 44.312 393.563 45.32 393.563 46.544V56.336C393.563 56.936 393.623 57.356 393.743 57.596C393.863 57.812 394.067 57.92 394.355 57.92C394.571 57.92 394.775 57.86 394.967 57.74C395.183 57.62 395.411 57.476 395.651 57.308L396.011 57.92C395.507 58.352 394.919 58.688 394.247 58.928C393.599 59.144 392.867 59.252 392.051 59.252C391.163 59.252 390.455 59.132 389.927 58.892C389.399 58.628 389.015 58.28 388.775 57.848C388.559 57.416 388.451 56.912 388.451 56.336C387.875 57.248 387.179 57.968 386.363 58.496C385.547 59 384.551 59.252 383.375 59.252ZM385.931 56.948C386.411 56.948 386.843 56.84 387.227 56.624C387.635 56.384 388.019 56 388.379 55.472V48.092C388.163 48.452 387.863 48.776 387.479 49.064C387.095 49.352 386.687 49.652 386.255 49.964C385.823 50.252 385.403 50.576 384.995 50.936C384.611 51.296 384.299 51.74 384.059 52.268C383.819 52.796 383.699 53.432 383.699 54.176C383.699 55.112 383.903 55.808 384.311 56.264C384.719 56.72 385.259 56.948 385.931 56.948ZM406.328 39.884C408.44 39.884 410.096 40.508 411.296 41.756C412.496 43.004 413.096 45.044 413.096 47.876H401.252L401.18 47.192H408.56C408.584 46.016 408.512 44.936 408.344 43.952C408.176 42.944 407.912 42.14 407.552 41.54C407.192 40.94 406.712 40.64 406.112 40.64C405.272 40.64 404.552 41.168 403.952 42.224C403.376 43.28 403.028 45.032 402.908 47.48L403.016 47.696C402.992 47.984 402.968 48.284 402.944 48.596C402.944 48.908 402.944 49.232 402.944 49.568C402.944 51.224 403.172 52.568 403.628 53.6C404.108 54.632 404.708 55.388 405.428 55.868C406.148 56.324 406.88 56.552 407.624 56.552C408.128 56.552 408.644 56.48 409.172 56.336C409.724 56.168 410.276 55.88 410.828 55.472C411.38 55.04 411.896 54.44 412.376 53.672L413.024 53.888C412.736 54.8 412.28 55.688 411.656 56.552C411.032 57.416 410.24 58.124 409.28 58.676C408.32 59.228 407.168 59.504 405.824 59.504C404.192 59.504 402.752 59.156 401.504 58.46C400.256 57.764 399.272 56.708 398.552 55.292C397.856 53.876 397.508 52.076 397.508 49.892C397.508 47.66 397.88 45.8 398.624 44.312C399.392 42.824 400.436 41.72 401.756 41C403.1 40.256 404.624 39.884 406.328 39.884ZM440.056 40.388V41.144C439.48 41.144 439.036 41.228 438.724 41.396C438.412 41.54 438.196 41.816 438.076 42.224C437.956 42.608 437.896 43.172 437.896 43.916V55.472C437.896 56.216 437.956 56.792 438.076 57.2C438.196 57.584 438.412 57.86 438.724 58.028C439.036 58.172 439.48 58.244 440.056 58.244V59C439.552 58.976 438.88 58.952 438.04 58.928C437.2 58.88 436.324 58.856 435.412 58.856C434.428 58.856 433.468 58.88 432.532 58.928C431.596 58.952 430.864 58.976 430.336 59V58.244C430.96 58.244 431.44 58.172 431.776 58.028C432.136 57.86 432.376 57.584 432.496 57.2C432.64 56.792 432.712 56.216 432.712 55.472V42.476L425.836 59.18H425.26L418.384 42.692V53.888C418.384 54.824 418.468 55.616 418.636 56.264C418.804 56.888 419.128 57.368 419.608 57.704C420.088 58.04 420.796 58.232 421.732 58.28V59C421.252 58.952 420.688 58.928 420.04 58.928C419.416 58.904 418.744 58.892 418.024 58.892C417.52 58.892 416.992 58.904 416.44 58.928C415.912 58.928 415.468 58.952 415.108 59V58.28C415.804 58.232 416.332 58.028 416.692 57.668C417.052 57.284 417.292 56.756 417.412 56.084C417.532 55.412 417.592 54.608 417.592 53.672V44.204C417.592 43.316 417.532 42.668 417.412 42.26C417.292 41.828 417.052 41.54 416.692 41.396C416.332 41.228 415.804 41.132 415.108 41.108V40.388C415.468 40.412 415.912 40.436 416.44 40.46C416.992 40.484 417.52 40.496 418.024 40.496C419.872 40.496 421.48 40.46 422.848 40.388L427.96 53.24L426.664 55.256L432.712 40.496C433.144 40.496 433.624 40.508 434.152 40.532C434.68 40.532 435.172 40.532 435.628 40.532C436.492 40.532 437.32 40.52 438.112 40.496C438.928 40.448 439.576 40.412 440.056 40.388ZM449.602 30.848C451.33 30.848 452.83 31.112 454.102 31.64C455.398 32.144 456.406 32.888 457.126 33.872C457.87 34.832 458.242 35.984 458.242 37.328C458.242 38.672 457.846 39.872 457.054 40.928C456.286 41.984 455.218 42.884 453.85 43.628C452.482 44.348 450.886 44.912 449.062 45.32V50.576H448.342V44.996C449.686 44.396 450.694 43.736 451.366 43.016C452.038 42.296 452.494 41.516 452.734 40.676C452.974 39.836 453.094 38.948 453.094 38.012C453.094 35.732 452.674 34.088 451.834 33.08C451.018 32.072 449.962 31.568 448.666 31.568C448.018 31.568 447.406 31.64 446.83 31.784C446.278 31.928 445.846 32.168 445.534 32.504C446.182 32.72 446.674 33.044 447.01 33.476C447.37 33.884 447.55 34.436 447.55 35.132C447.55 35.876 447.286 36.5 446.758 37.004C446.23 37.484 445.546 37.724 444.706 37.724C443.938 37.724 443.314 37.484 442.834 37.004C442.378 36.5 442.15 35.912 442.15 35.24C442.15 34.496 442.342 33.884 442.726 33.404C443.134 32.9 443.626 32.468 444.202 32.108C444.778 31.772 445.51 31.484 446.398 31.244C447.31 30.98 448.378 30.848 449.602 30.848ZM448.738 53.96C449.674 53.96 450.418 54.212 450.97 54.716C451.522 55.196 451.798 55.868 451.798 56.732C451.798 57.596 451.522 58.28 450.97 58.784C450.418 59.264 449.674 59.504 448.738 59.504C447.802 59.504 447.058 59.264 446.506 58.784C445.954 58.28 445.678 57.596 445.678 56.732C445.678 55.868 445.954 55.196 446.506 54.716C447.058 54.212 447.802 53.96 448.738 53.96Z" fill="white"/>
<g clip-path="url(#clip0_92_576)">
<mask id="mask0_92_576" style="mask-type:luminance" maskUnits="userSpaceOnUse" x="0" y="52" width="594" height="396">
<path d="M594 52H0V448H594V52Z" fill="white"/>
</mask>
<g mask="url(#mask0_92_576)">
<path d="M537.866 393.981C537.866 396.882 535.515 399.234 532.614 399.234H61.3878C58.4867 399.234 56.1353 396.882 56.1353 393.981C56.1353 391.08 58.4867 388.729 61.3878 388.729H532.614C535.515 388.729 537.866 391.08 537.866 393.981Z" fill="#298FE2"/>
<path d="M306.995 368.856C306.995 379.731 298.178 388.549 287.302 388.549C276.425 388.549 267.609 379.731 267.609 368.856C267.609 357.981 276.425 349.163 287.302 349.163C298.178 349.163 306.995 357.981 306.995 368.856Z" fill="#4C4C4C"/>
<path d="M304.096 368.856C304.096 379.731 295.28 388.549 284.403 388.549C273.526 388.549 264.71 379.731 264.71 368.856C264.71 357.981 273.526 349.163 284.403 349.163C295.28 349.163 304.096 357.981 304.096 368.856Z" fill="#353535"/>
<path d="M380.372 353.326H207.714V235.655H380.372V353.326Z" fill="#FFB210"/>
<path d="M380.372 353.326H207.714V235.655H380.372V353.326Z" fill="#FFB210"/>
<path d="M380.372 353.326H207.714V235.655H380.372V353.326Z" fill="#FFB210"/>
<g opacity="0.199997">
<mask id="mask1_92_576" style="mask-type:luminance" maskUnits="userSpaceOnUse" x="207" y="235" width="88" height="85">
<path d="M207.713 319.735H294.042V235.655H207.713V319.735Z" fill="white"/>
</mask>
<g mask="url(#mask1_92_576)">
<path d="M294.042 235.655H207.713V319.735L262.365 277.695L293.85 235.851L294.042 235.655Z" fill="#FFB210"/>
</g>
</g>
<path d="M294.042 235.655H380.371V353.326H294.042V235.655Z" fill="#FFC001"/>
<g opacity="0.199997">
<mask id="mask2_92_576" style="mask-type:luminance" maskUnits="userSpaceOnUse" x="294" y="235" width="87" height="85">
<path d="M294.042 319.735H380.372V235.655H294.042V319.735Z" fill="white"/>
</mask>
<g mask="url(#mask2_92_576)">
<path d="M294.042 235.655H380.371V319.735L325.72 277.695L294.235 235.851L294.042 235.655Z" fill="#FFC001"/>
</g>
</g>
<g opacity="0.399994">
<mask id="mask3_92_576" style="mask-type:luminance" maskUnits="userSpaceOnUse" x="267" y="331" width="54" height="16">
<path d="M267.491 346.445H320.212V331.514H267.491V346.445Z" fill="white"/>
</mask>
<g mask="url(#mask3_92_576)">
<path d="M320.212 346.445H267.491V331.513H320.212V346.445Z" fill="#DB6C21"/>
</g>
</g>
<path d="M262.781 267.573H176.451L207.713 235.656H294.043L262.781 267.573Z" fill="#FFC001"/>
<path d="M411.634 267.573H325.304L294.042 235.656H380.371L411.634 267.573Z" fill="#FBD45B"/>
<path d="M381.148 358.041C381.148 359.135 380.265 360.019 379.172 360.019H205.407C204.314 360.019 203.429 359.135 203.429 358.041V352.223C203.429 351.13 204.314 350.246 205.407 350.246H379.172C380.265 350.246 381.148 351.13 381.148 352.223V358.041Z" fill="#4C4C4C"/>
<path d="M392.966 369.666C392.966 370.76 392.082 371.643 390.988 371.643H210.102C209.009 371.643 208.124 370.76 208.124 369.666V359.143C208.124 358.05 209.009 357.167 210.102 357.167H390.988C392.082 357.167 392.966 358.05 392.966 359.143V369.666Z" fill="#6D6D6D"/>
<path d="M251.835 351.486C240.703 351.486 231.677 360.511 231.677 371.644H271.992C271.992 360.511 262.967 351.486 251.835 351.486Z" fill="#191919"/>
<path d="M276.378 367.764C275.873 367.764 275.367 367.57 274.981 367.184L262.608 354.811H239.78L227.408 367.184C226.635 367.955 225.385 367.955 224.612 367.184C223.84 366.412 223.84 365.16 224.612 364.387L237.564 351.436C237.935 351.065 238.437 350.856 238.962 350.856H263.427C263.952 350.856 264.453 351.065 264.824 351.436L277.776 364.387C278.549 365.16 278.549 366.412 277.776 367.184C277.39 367.57 276.885 367.764 276.378 367.764Z" fill="#878787"/>
<path d="M272.337 373.207C272.337 384.083 263.52 392.9 252.644 392.9C241.767 392.9 232.951 384.083 232.951 373.207C232.951 362.332 241.767 353.515 252.644 353.515C263.52 353.515 272.337 362.332 272.337 373.207Z" fill="#4C4C4C"/>
<path d="M269.438 373.207C269.438 384.083 260.622 392.9 249.745 392.9C238.868 392.9 230.053 384.083 230.053 373.207C230.053 362.332 238.868 353.515 249.745 353.515C260.622 353.515 269.438 362.332 269.438 373.207Z" fill="#353535"/>
<path d="M259.072 373.207C259.072 378.357 254.895 382.534 249.745 382.534C244.595 382.534 240.418 378.357 240.418 373.207C240.418 368.057 244.595 363.88 249.745 363.88C254.895 363.88 259.072 368.057 259.072 373.207Z" fill="#4C4C4C"/>
<path d="M252.619 373.207C252.619 374.795 251.332 376.081 249.745 376.081C248.158 376.081 246.873 374.795 246.873 373.207C246.873 371.62 248.158 370.333 249.745 370.333C251.332 370.333 252.619 371.62 252.619 373.207Z" fill="#666666"/>
<path d="M503.656 368.856C503.656 379.731 494.84 388.549 483.964 388.549C473.088 388.549 464.271 379.731 464.271 368.856C464.271 357.981 473.088 349.163 483.964 349.163C494.84 349.163 503.656 357.981 503.656 368.856Z" fill="#4C4C4C"/>
<path d="M500.758 368.856C500.758 379.731 491.941 388.549 481.065 388.549C470.189 388.549 461.373 379.731 461.373 368.856C461.373 357.981 470.189 349.163 481.065 349.163C491.941 349.163 500.758 357.981 500.758 368.856Z" fill="#353535"/>
<path d="M507.424 319.385C499.151 317.712 472.649 312.488 471.008 312.165C463.931 297.877 457.265 284.456 453.4 276.766C452.91 275.79 452.517 274.789 451.424 274.789H378.07C376.977 274.789 376.093 275.674 376.093 276.766V369.665C376.093 370.759 376.977 371.643 378.07 371.643H383.557H497.444H507.424C508.516 371.643 509.4 370.759 509.4 369.665V321.363C509.4 320.271 508.493 319.601 507.424 319.385Z" fill="#DB4233"/>
<path d="M476.736 369.666V321.363C476.736 320.271 475.829 319.602 474.76 319.386C466.487 317.712 439.985 312.488 438.343 312.165C431.268 297.877 424.601 284.456 420.737 276.767C420.246 275.79 419.852 274.79 418.76 274.79H378.069C376.976 274.79 376.092 275.674 376.092 276.767V369.666C376.092 370.76 376.976 371.644 378.069 371.644H383.556H464.78H474.76C475.853 371.644 476.736 370.76 476.736 369.666Z" fill="#BF2A22"/>
<path d="M443.594 351.486C432.463 351.486 423.437 360.511 423.437 371.644H463.752C463.752 360.511 454.727 351.486 443.594 351.486Z" fill="#191919"/>
<path d="M509.957 346.304H477.297C476.204 346.304 475.32 347.188 475.32 348.28V358.232H452.846C451.753 358.232 450.869 359.116 450.869 360.208V371.759C450.869 372.851 451.753 373.736 452.846 373.736H477.297H509.481H509.957C511.051 373.736 511.934 372.851 511.934 371.759V348.28C511.934 347.188 511.051 346.304 509.957 346.304Z" fill="#878787"/>
<path d="M479.137 371.758V348.279C479.137 347.188 480.021 346.303 481.113 346.303H477.297C476.204 346.303 475.32 347.188 475.32 348.279V358.231H452.846C451.753 358.231 450.869 359.115 450.869 360.207V371.758C450.869 372.85 451.753 373.735 452.846 373.735H477.297H481.113C480.021 373.735 479.137 372.85 479.137 371.758Z" fill="#6D6D6D"/>
<path d="M485.577 338.484C485.577 339.576 484.692 340.46 483.599 340.46H477.653C476.56 340.46 475.676 339.576 475.676 338.484V333.491C475.676 332.398 476.56 331.514 477.653 331.514H483.599C484.692 331.514 485.577 332.398 485.577 333.491V338.484Z" fill="#FEC202"/>
<path d="M510.861 338.484C510.861 339.576 509.977 340.46 508.884 340.46H502.938C501.846 340.46 500.962 339.576 500.962 338.484V333.491C500.962 332.398 501.846 331.514 502.938 331.514H508.884C509.977 331.514 510.861 332.398 510.861 333.491V338.484Z" fill="#FEC202"/>
<path d="M483.6 331.514H477.654C476.945 331.514 476.351 331.908 476.003 332.467H481.455C482.548 332.467 483.432 333.351 483.432 334.445V339.436C483.432 339.82 483.296 340.158 483.106 340.46H483.6C484.693 340.46 485.577 339.576 485.577 338.484V333.491C485.577 332.398 484.693 331.514 483.6 331.514Z" fill="#FBD45B"/>
<path d="M508.884 331.514H502.938C502.231 331.514 501.638 331.908 501.288 332.467H506.74C507.832 332.467 508.716 333.351 508.716 334.445V339.436C508.716 339.82 508.579 340.158 508.39 340.46H508.884C509.977 340.46 510.861 339.576 510.861 338.484V333.491C510.861 332.398 509.977 331.514 508.884 331.514Z" fill="#FBD45B"/>
<path d="M468.778 367.764C468.273 367.764 467.768 367.57 467.381 367.184L455.008 354.811H432.181L419.808 367.184C419.035 367.955 417.784 367.955 417.012 367.184C416.24 366.412 416.24 365.16 417.012 364.387L429.965 351.436C430.334 351.065 430.837 350.856 431.362 350.856H455.826C456.351 350.856 456.853 351.065 457.223 351.436L470.176 364.387C470.948 365.16 470.948 366.412 470.176 367.184C469.79 367.57 469.284 367.764 468.778 367.764Z" fill="#878787"/>
<path d="M415.08 280.612L380.95 280.613C380.059 280.613 379.336 281.337 379.336 282.227V367.021C379.336 367.911 380.059 368.635 380.95 368.635H412.192V349.171C412.192 343.791 416.325 339.383 421.668 338.985V289.672C421.621 288.532 416.019 280.824 415.08 280.612ZM412.554 369.361H380.95C379.66 369.361 378.611 368.31 378.611 367.021V282.227C378.611 280.938 379.66 279.889 380.95 279.889H415.099C416.617 279.889 422.393 288.686 422.393 289.672V339.328C422.393 339.522 422.239 339.681 422.046 339.69C416.925 339.901 412.916 344.065 412.916 349.171V368.997C412.916 369.198 412.753 369.361 412.554 369.361Z" fill="#DB4233"/>
<path d="M467.784 310.363C461.781 298.245 456.319 287.261 452.968 280.593C452.477 279.617 452.084 278.616 450.992 278.616H424.739L440.527 310.363H467.784Z" fill="#83E8F2"/>
<path d="M434.023 310.363H383.125C382.032 310.363 381.148 309.479 381.148 308.387V280.296C381.148 279.367 381.899 278.616 382.828 278.616H417.389C418.319 278.616 418.653 279.465 419.069 280.296C422.351 286.828 428.013 298.227 434.023 310.363Z" fill="#83E8F2"/>
<path d="M456.369 287.389L442.436 310.363H453.535L461.373 297.438C459.555 293.781 457.871 290.396 456.369 287.389Z" fill="#ACF6FC"/>
<path d="M445.19 278.616L433.953 297.144L435.736 300.73L449.148 278.616H445.19Z" fill="#ACF6FC"/>
<path d="M403.091 278.616L383.837 310.363H387.795L407.05 278.616H403.091Z" fill="#ACF6FC"/>
<path d="M419.068 280.296C418.993 280.145 418.919 279.995 418.845 279.848L400.338 310.363H411.437L423.858 289.882C421.983 286.115 420.344 282.834 419.068 280.296Z" fill="#ACF6FC"/>
<path d="M465.721 373.207C465.721 384.083 456.904 392.9 446.028 392.9C435.152 392.9 426.336 384.083 426.336 373.207C426.336 362.332 435.152 353.515 446.028 353.515C456.904 353.515 465.721 362.332 465.721 373.207Z" fill="#4C4C4C"/>
<path d="M462.823 373.207C462.823 384.083 454.006 392.9 443.13 392.9C432.254 392.9 423.437 384.083 423.437 373.207C423.437 362.332 432.254 353.515 443.13 353.515C454.006 353.515 462.823 362.332 462.823 373.207Z" fill="#353535"/>
<path d="M452.457 373.207C452.457 378.357 448.282 382.534 443.13 382.534C437.98 382.534 433.804 378.357 433.804 373.207C433.804 368.057 437.98 363.88 443.13 363.88C448.282 363.88 452.457 368.057 452.457 373.207Z" fill="#4C4C4C"/>
<path d="M446.004 373.207C446.004 374.795 444.718 376.081 443.13 376.081C441.543 376.081 440.258 374.795 440.258 373.207C440.258 371.62 441.543 370.333 443.13 370.333C444.718 370.333 446.004 371.62 446.004 373.207Z" fill="#666666"/>
<path d="M509.4 350.608H481.402C481.201 350.608 481.039 350.446 481.039 350.246C481.039 350.046 481.201 349.884 481.402 349.884H509.4C509.6 349.884 509.763 350.046 509.763 350.246C509.763 350.446 509.6 350.608 509.4 350.608Z" fill="#4C4C4C"/>
<path d="M509.4 353.877H481.402C481.201 353.877 481.039 353.715 481.039 353.515C481.039 353.314 481.201 353.153 481.402 353.153H509.4C509.6 353.153 509.763 353.314 509.763 353.515C509.763 353.715 509.6 353.877 509.4 353.877Z" fill="#4C4C4C"/>
<path d="M509.4 357.145H481.402C481.201 357.145 481.039 356.984 481.039 356.783C481.039 356.583 481.201 356.42 481.402 356.42H509.4C509.6 356.42 509.763 356.583 509.763 356.783C509.763 356.984 509.6 357.145 509.4 357.145Z" fill="#4C4C4C"/>
<path d="M509.4 360.414H481.402C481.201 360.414 481.039 360.253 481.039 360.052C481.039 359.852 481.201 359.689 481.402 359.689H509.4C509.6 359.689 509.763 359.852 509.763 360.052C509.763 360.253 509.6 360.414 509.4 360.414Z" fill="#4C4C4C"/>
<path d="M509.4 363.683H481.402C481.201 363.683 481.039 363.52 481.039 363.32C481.039 363.119 481.201 362.958 481.402 362.958H509.4C509.6 362.958 509.763 363.119 509.763 363.32C509.763 363.52 509.6 363.683 509.4 363.683Z" fill="#4C4C4C"/>
<path d="M509.4 366.952H481.402C481.201 366.952 481.039 366.789 481.039 366.589C481.039 366.389 481.201 366.227 481.402 366.227H509.4C509.6 366.227 509.763 366.389 509.763 366.589C509.763 366.789 509.6 366.952 509.4 366.952Z" fill="#4C4C4C"/>
<path d="M509.4 370.219H481.402C481.201 370.219 481.039 370.058 481.039 369.858C481.039 369.657 481.201 369.496 481.402 369.496H509.4C509.6 369.496 509.763 369.657 509.763 369.858C509.763 370.058 509.6 370.219 509.4 370.219Z" fill="#4C4C4C"/>
<path d="M198.749 392.901H126.536V331.96H198.749V392.901Z" fill="#FFC001"/>
<path d="M157.244 392.901H126.536V331.96H157.244V392.901Z" fill="#FFB210"/>
<g opacity="0.399994">
<mask id="mask4_92_576" style="mask-type:luminance" maskUnits="userSpaceOnUse" x="154" y="331" width="6" height="16">
<path d="M154.074 346.113H159.46V331.96H154.074V346.113Z" fill="white"/>
</mask>
<g mask="url(#mask4_92_576)">
<path d="M154.074 331.96H159.46V346.113H154.074V331.96Z" fill="#DB6C21"/>
</g>
</g>
<path d="M120.173 350.141H71.9517V307.142H120.173V350.141Z" fill="#FFC001"/>
<path d="M91.3873 350.141H71.9517V307.142H91.3873V350.141Z" fill="#FFB210"/>
<g opacity="0.399994">
<mask id="mask5_92_576" style="mask-type:luminance" maskUnits="userSpaceOnUse" x="86" y="310" width="11" height="4">
<path d="M86.7231 313.843H96.0632V310.713H86.7231V313.843Z" fill="white"/>
</mask>
<g mask="url(#mask5_92_576)">
<path d="M96.0632 313.843H86.7231V310.713H96.0632V313.843Z" fill="#DB6C21"/>
</g>
</g>
<g opacity="0.399994">
<mask id="mask6_92_576" style="mask-type:luminance" maskUnits="userSpaceOnUse" x="86" y="335" width="11" height="4">
<path d="M86.7231 338.98H96.0632V335.851H86.7231V338.98Z" fill="white"/>
</mask>
<g mask="url(#mask6_92_576)">
<path d="M96.0632 338.98H86.7231V335.852H96.0632V338.98Z" fill="#DB6C21"/>
</g>
</g>
<path d="M137.935 392.901H63.085V343.121H137.935V392.901Z" fill="#FBD45B"/>
<path d="M86.723 392.901H63.085V343.121H86.723V392.901Z" fill="#FEC202"/>
<g opacity="0.399994">
<mask id="mask7_92_576" style="mask-type:luminance" maskUnits="userSpaceOnUse" x="74" y="366" width="25" height="9">
<path d="M74.9663 374.176H98.4798V366.491H74.9663V374.176Z" fill="white"/>
</mask>
<g mask="url(#mask7_92_576)">
<path d="M98.4797 374.176H74.9668V366.491H98.4797V374.176Z" fill="#DB6C21"/>
</g>
</g>
<path d="M225.047 392.901H160.581V373.205H225.047V392.901Z" fill="#FFB210"/>
<path d="M184.221 392.901H160.581V373.205H184.221V392.901Z" fill="#FF9920"/>
<g opacity="0.399994">
<mask id="mask8_92_576" style="mask-type:luminance" maskUnits="userSpaceOnUse" x="179" y="382" width="10" height="4">
<path d="M179.551 385.663H188.891V382.534H179.551V385.663Z" fill="white"/>
</mask>
<g mask="url(#mask8_92_576)">
<path d="M188.891 385.663H179.551V382.534H188.891V385.663Z" fill="#DB6C21"/>
</g>
</g>
<path d="M152.522 392.901H109.712V356.26H152.522V392.901Z" fill="#FF9920"/>
<path d="M126.536 392.901H109.712V356.26H126.536V392.901Z" fill="#FF8D18"/>
<g opacity="0.399994">
<mask id="mask9_92_576" style="mask-type:luminance" maskUnits="userSpaceOnUse" x="139" y="356" width="4" height="10">
<path d="M139.332 365.601H142.461V356.26H139.332V365.601Z" fill="white"/>
</mask>
<g mask="url(#mask9_92_576)">
<path d="M139.332 356.26H142.461V365.601H139.332V356.26Z" fill="#DB6C21"/>
</g>
</g>
<g opacity="0.399994">
<mask id="mask10_92_576" style="mask-type:luminance" maskUnits="userSpaceOnUse" x="116" y="356" width="4" height="10">
<path d="M116.074 365.601H119.202V356.26H116.074V365.601Z" fill="white"/>
</mask>
<g mask="url(#mask10_92_576)">
<path d="M116.074 356.26H119.203V365.601H116.074V356.26Z" fill="#DB6C21"/>
</g>
</g>
<path d="M298.226 110.285C298.211 110.285 298.197 110.285 298.183 110.285C296.243 110.225 294.268 110.195 292.315 110.195L291.732 110.196H291.729C290.961 110.196 290.339 109.575 290.336 108.806C290.335 108.037 290.956 107.412 291.725 107.411H292.318C294.297 107.411 296.3 107.441 298.267 107.5C299.036 107.524 299.64 108.166 299.616 108.935C299.594 109.689 298.975 110.285 298.226 110.285ZM275.969 110.884C275.253 110.884 274.644 110.336 274.583 109.609C274.518 108.843 275.086 108.17 275.853 108.105C278.013 107.922 280.209 107.772 282.381 107.662C283.144 107.618 283.803 108.214 283.842 108.982C283.881 109.75 283.291 110.404 282.522 110.443C280.382 110.552 278.216 110.698 276.087 110.879C276.048 110.883 276.007 110.884 275.969 110.884ZM313.956 111.407C313.904 111.407 313.851 111.404 313.798 111.399C311.677 111.159 309.518 110.952 307.381 110.785C306.613 110.724 306.041 110.054 306.101 109.288C306.162 108.52 306.841 107.946 307.599 108.008C309.766 108.178 311.958 108.387 314.11 108.631C314.875 108.717 315.424 109.407 315.337 110.17C315.258 110.881 314.655 111.407 313.956 111.407ZM260.321 112.861C259.654 112.861 259.064 112.38 258.95 111.699C258.822 110.94 259.333 110.222 260.092 110.095C262.234 109.734 264.41 109.405 266.562 109.117C267.321 109.015 268.025 109.55 268.125 110.314C268.228 111.076 267.693 111.776 266.93 111.878C264.81 112.161 262.665 112.485 260.554 112.84C260.476 112.854 260.398 112.861 260.321 112.861ZM329.542 113.818C329.453 113.818 329.362 113.809 329.27 113.791C327.179 113.379 325.044 112.994 322.925 112.651C322.166 112.528 321.65 111.813 321.773 111.053C321.896 110.293 322.615 109.779 323.37 109.903C325.522 110.25 327.688 110.64 329.811 111.059C330.564 111.209 331.055 111.94 330.907 112.694C330.776 113.358 330.193 113.818 329.542 113.818ZM244.892 116.122C244.27 116.122 243.704 115.703 243.543 115.073C243.353 114.328 243.803 113.57 244.548 113.38C246.645 112.845 248.787 112.337 250.915 111.871C251.668 111.709 252.409 112.182 252.574 112.933C252.738 113.684 252.262 114.426 251.512 114.591C249.414 115.051 247.303 115.551 245.237 116.079C245.122 116.108 245.005 116.122 244.892 116.122ZM344.875 117.512C344.747 117.512 344.62 117.494 344.492 117.458C342.44 116.871 340.345 116.313 338.262 115.795C337.516 115.61 337.061 114.854 337.247 114.107C337.432 113.36 338.187 112.907 338.934 113.092C341.048 113.618 343.175 114.185 345.257 114.78C345.995 114.99 346.425 115.762 346.213 116.501C346.038 117.113 345.48 117.512 344.875 117.512ZM229.786 120.655C229.209 120.655 228.669 120.293 228.47 119.717C228.219 118.991 228.604 118.197 229.332 117.946C231.387 117.235 233.48 116.551 235.551 115.913C236.288 115.684 237.065 116.099 237.292 116.834C237.518 117.569 237.107 118.348 236.37 118.574C234.33 119.204 232.268 119.877 230.242 120.579C230.091 120.63 229.937 120.655 229.786 120.655ZM359.867 122.473C359.703 122.473 359.538 122.445 359.375 122.383C357.369 121.625 355.321 120.891 353.286 120.201C352.558 119.955 352.168 119.163 352.414 118.436C352.661 117.708 353.452 117.316 354.18 117.564C356.244 118.263 358.324 119.008 360.359 119.777C361.079 120.05 361.443 120.853 361.171 121.573C360.959 122.13 360.429 122.473 359.867 122.473ZM215.126 126.418C214.591 126.418 214.081 126.108 213.851 125.588C213.541 124.885 213.859 124.063 214.562 123.751C216.543 122.876 218.566 122.023 220.574 121.217C221.29 120.933 222.098 121.276 222.385 121.99C222.672 122.704 222.326 123.515 221.613 123.801C219.634 124.596 217.64 125.436 215.688 126.299C215.505 126.379 215.313 126.418 215.126 126.418ZM374.407 128.668C374.207 128.668 374.003 128.625 373.811 128.533C371.868 127.608 369.889 126.707 367.928 125.854C367.222 125.548 366.9 124.727 367.206 124.022C367.513 123.318 368.331 122.993 369.039 123.301C371.028 124.166 373.037 125.08 375.006 126.018C375.701 126.348 375.996 127.179 375.665 127.874C375.427 128.375 374.928 128.668 374.407 128.668ZM201.003 133.369C200.51 133.369 200.032 133.106 199.779 132.642C199.411 131.967 199.661 131.122 200.336 130.753C202.238 129.718 204.185 128.7 206.122 127.729C206.809 127.384 207.646 127.661 207.99 128.35C208.336 129.037 208.057 129.874 207.37 130.218C205.461 131.175 203.542 132.178 201.668 133.199C201.456 133.315 201.228 133.369 201.003 133.369ZM388.376 136.045C388.138 136.045 387.897 135.984 387.676 135.855C385.826 134.778 383.931 133.717 382.04 132.701C381.364 132.337 381.108 131.492 381.472 130.815C381.837 130.137 382.684 129.885 383.358 130.248C385.277 131.279 387.202 132.355 389.079 133.448C389.742 133.835 389.967 134.688 389.58 135.352C389.322 135.797 388.855 136.045 388.376 136.045ZM187.495 141.466C187.041 141.466 186.596 141.245 186.329 140.838C185.907 140.195 186.086 139.331 186.728 138.909C188.54 137.72 190.398 136.544 192.249 135.417C192.906 135.014 193.764 135.222 194.163 135.881C194.563 136.536 194.355 137.394 193.699 137.794C191.873 138.906 190.044 140.064 188.258 141.238C188.022 141.391 187.756 141.466 187.495 141.466ZM401.68 144.545C401.405 144.545 401.127 144.464 400.885 144.295C399.117 143.061 397.316 141.848 395.53 140.688C394.886 140.27 394.702 139.407 395.121 138.763C395.541 138.117 396.404 137.935 397.046 138.352C398.859 139.528 400.685 140.76 402.479 142.011C403.11 142.452 403.263 143.32 402.824 143.95C402.554 144.338 402.121 144.545 401.68 144.545ZM174.689 150.651C174.275 150.651 173.865 150.468 173.591 150.116C173.118 149.51 173.224 148.635 173.831 148.162C175.544 146.821 177.3 145.496 179.048 144.224C179.67 143.77 180.541 143.908 180.993 144.53C181.446 145.151 181.309 146.022 180.688 146.474C178.965 147.73 177.235 149.034 175.545 150.356C175.29 150.555 174.989 150.651 174.689 150.651ZM414.237 154.109C413.925 154.109 413.609 154.005 413.35 153.789C411.704 152.425 410.01 151.067 408.313 149.756C407.703 149.286 407.593 148.412 408.063 147.803C408.533 147.195 409.409 147.083 410.015 147.552C411.737 148.884 413.457 150.261 415.128 151.645C415.718 152.136 415.802 153.015 415.31 153.606C415.035 153.939 414.638 154.109 414.237 154.109ZM162.674 160.861C162.299 160.861 161.925 160.711 161.65 160.414C161.129 159.848 161.164 158.967 161.729 158.446C163.322 156.975 164.964 155.51 166.609 154.092C167.19 153.588 168.071 153.652 168.573 154.237C169.075 154.818 169.01 155.698 168.428 156.2C166.806 157.599 165.188 159.043 163.619 160.492C163.351 160.739 163.012 160.861 162.674 160.861ZM425.961 164.667C425.611 164.667 425.26 164.535 424.989 164.27C423.451 162.767 421.874 161.277 420.3 159.839C419.733 159.321 419.693 158.44 420.211 157.872C420.731 157.304 421.611 157.265 422.178 157.783C423.775 159.241 425.376 160.754 426.936 162.278C427.485 162.816 427.496 163.697 426.958 164.247C426.685 164.526 426.323 164.667 425.961 164.667ZM151.532 172.026C151.194 172.026 150.857 171.904 150.59 171.658C150.024 171.137 149.987 170.257 150.507 169.691C151.979 168.09 153.496 166.494 155.017 164.949C155.556 164.4 156.437 164.394 156.986 164.933C157.534 165.472 157.542 166.354 157.002 166.902C155.503 168.425 154.008 169.997 152.557 171.575C152.283 171.875 151.908 172.026 151.532 172.026ZM436.778 176.144C436.388 176.144 436.001 175.981 435.725 175.664C434.321 174.046 432.873 172.432 431.42 170.867C430.895 170.303 430.928 169.423 431.492 168.899C432.054 168.376 432.937 168.409 433.458 168.972C434.933 170.56 436.405 172.198 437.83 173.84C438.332 174.42 438.271 175.299 437.69 175.804C437.426 176.032 437.101 176.144 436.778 176.144ZM141.338 184.071C141.039 184.071 140.738 183.975 140.484 183.776C139.877 183.304 139.768 182.429 140.24 181.823C141.577 180.103 142.96 178.389 144.347 176.724C144.839 176.135 145.717 176.055 146.309 176.547C146.899 177.04 146.979 177.918 146.486 178.508C145.119 180.148 143.756 181.839 142.437 183.533C142.164 183.886 141.753 184.071 141.338 184.071ZM446.61 188.465C446.181 188.465 445.759 188.267 445.487 187.895C444.226 186.177 442.916 184.451 441.59 182.764C441.115 182.159 441.218 181.284 441.823 180.808C442.429 180.334 443.302 180.438 443.778 181.043C445.124 182.753 446.455 184.505 447.733 186.249C448.186 186.869 448.052 187.741 447.432 188.195C447.184 188.377 446.896 188.465 446.61 188.465ZM132.164 196.917C131.903 196.917 131.638 196.844 131.404 196.69C130.76 196.269 130.579 195.406 130.999 194.763C132.187 192.945 133.424 191.12 134.676 189.341C135.118 188.712 135.987 188.56 136.616 189.003C137.246 189.446 137.396 190.314 136.954 190.943C135.721 192.696 134.501 194.494 133.331 196.286C133.063 196.694 132.619 196.917 132.164 196.917ZM455.396 201.543C454.927 201.543 454.469 201.307 454.208 200.879C453.091 199.057 451.926 197.23 450.748 195.448C450.323 194.807 450.5 193.943 451.141 193.518C451.779 193.095 452.647 193.27 453.071 193.911C454.266 195.72 455.448 197.573 456.581 199.422C456.984 200.078 456.777 200.935 456.122 201.337C455.897 201.476 455.644 201.543 455.396 201.543ZM124.076 210.482C123.853 210.482 123.625 210.427 123.415 210.313C122.739 209.948 122.488 209.102 122.854 208.426C123.891 206.51 124.975 204.589 126.072 202.717C126.462 202.054 127.316 201.833 127.978 202.221C128.641 202.61 128.863 203.463 128.474 204.126C127.392 205.971 126.326 207.864 125.302 209.753C125.051 210.218 124.571 210.482 124.076 210.482ZM463.07 215.293C462.561 215.293 462.071 215.013 461.826 214.528C460.865 212.625 459.856 210.71 458.826 208.835C458.457 208.161 458.704 207.313 459.379 206.944C460.051 206.574 460.898 206.82 461.269 207.495C462.313 209.398 463.337 211.341 464.311 213.273C464.658 213.959 464.383 214.796 463.696 215.143C463.496 215.244 463.28 215.293 463.07 215.293ZM117.137 224.677C116.951 224.677 116.76 224.639 116.579 224.56C115.874 224.25 115.554 223.429 115.862 222.725C116.735 220.734 117.656 218.728 118.597 216.764C118.931 216.07 119.762 215.781 120.455 216.112C121.149 216.445 121.441 217.276 121.109 217.97C120.18 219.904 119.273 221.88 118.413 223.843C118.184 224.366 117.673 224.677 117.137 224.677ZM469.578 229.62C469.026 229.62 468.506 229.292 468.287 228.75C467.482 226.767 466.635 224.777 465.77 222.833C465.457 222.132 465.772 221.308 466.475 220.995C467.179 220.681 468 220.997 468.314 221.701C469.192 223.672 470.051 225.692 470.866 227.704C471.156 228.417 470.812 229.229 470.1 229.518C469.929 229.588 469.751 229.62 469.578 229.62ZM111.396 239.408C111.247 239.408 111.095 239.384 110.945 239.332C110.217 239.084 109.83 238.292 110.079 237.564C110.786 235.499 111.537 233.423 112.312 231.392C112.586 230.674 113.391 230.314 114.109 230.588C114.828 230.862 115.189 231.666 114.913 232.385C114.151 234.385 113.411 236.432 112.714 238.467C112.516 239.045 111.975 239.408 111.396 239.408ZM474.889 244.472C474.295 244.472 473.744 244.09 473.56 243.493C472.92 241.443 472.24 239.383 471.536 237.37C471.283 236.643 471.665 235.85 472.392 235.596C473.116 235.343 473.912 235.725 474.166 236.451C474.879 238.494 475.569 240.585 476.218 242.664C476.447 243.399 476.037 244.179 475.302 244.409C475.164 244.452 475.025 244.472 474.889 244.472ZM106.912 254.529C106.8 254.529 106.685 254.516 106.571 254.487C105.825 254.299 105.373 253.542 105.561 252.796C106.091 250.694 106.665 248.569 107.269 246.478C107.482 245.74 108.252 245.313 108.992 245.526C109.731 245.74 110.157 246.512 109.945 247.251C109.349 249.311 108.783 251.405 108.262 253.477C108.103 254.109 107.535 254.529 106.912 254.529ZM478.946 259.712C478.307 259.712 477.732 259.272 477.587 258.621C477.122 256.528 476.615 254.418 476.081 252.351C475.888 251.607 476.337 250.847 477.081 250.655C477.829 250.46 478.585 250.91 478.778 251.655C479.319 253.751 479.833 255.892 480.305 258.017C480.473 258.767 480 259.511 479.248 259.679C479.147 259.702 479.046 259.712 478.946 259.712ZM103.698 269.97C103.622 269.97 103.546 269.964 103.469 269.95C102.71 269.825 102.197 269.109 102.323 268.35C102.677 266.205 103.073 264.039 103.499 261.913C103.651 261.16 104.382 260.671 105.139 260.821C105.893 260.972 106.382 261.706 106.231 262.462C105.81 264.557 105.419 266.69 105.07 268.803C104.957 269.486 104.367 269.97 103.698 269.97ZM481.726 275.235C481.041 275.235 480.445 274.729 480.348 274.032C480.057 271.905 479.726 269.76 479.366 267.659C479.236 266.902 479.745 266.18 480.502 266.05C481.265 265.924 481.98 266.43 482.111 267.188C482.477 269.32 482.812 271.496 483.107 273.655C483.212 274.417 482.68 275.119 481.916 275.223C481.854 275.231 481.789 275.235 481.726 275.235ZM101.77 285.623C101.732 285.623 101.694 285.621 101.656 285.617C100.889 285.556 100.318 284.882 100.381 284.117C100.558 281.946 100.774 279.756 101.024 277.606C101.112 276.843 101.794 276.292 102.567 276.383C103.331 276.472 103.878 277.163 103.79 277.926C103.544 280.044 103.332 282.204 103.157 284.344C103.098 285.071 102.488 285.623 101.77 285.623ZM483.219 290.936C482.484 290.936 481.869 290.361 481.829 289.619C481.717 287.492 481.563 285.328 481.375 283.186C481.309 282.42 481.875 281.745 482.641 281.677C483.401 281.615 484.082 282.176 484.149 282.942C484.34 285.117 484.494 287.312 484.611 289.471C484.653 290.238 484.063 290.894 483.294 290.936C483.27 290.936 483.244 290.936 483.219 290.936ZM101.128 301.381C100.359 301.381 99.7358 300.758 99.7358 299.989C99.7358 297.814 99.7731 295.613 99.8451 293.449C99.8705 292.678 100.507 292.06 101.283 292.103C102.052 292.128 102.654 292.772 102.628 293.54C102.557 295.675 102.521 297.844 102.521 299.989C102.521 300.758 101.897 301.381 101.128 301.381ZM483.501 301.381C482.733 301.381 482.109 300.758 482.109 299.989L482.105 298.83C482.1 298.061 482.718 297.432 483.488 297.428H483.499C484.263 297.428 484.885 298.045 484.89 298.811L484.893 299.989C484.893 300.758 484.269 301.381 483.501 301.381Z" fill="white"/>
<path d="M448.887 184.417C430.803 193.109 423.191 214.817 431.882 232.901C440.575 250.985 462.283 258.598 480.367 249.905C498.451 241.213 506.066 219.505 497.371 201.421C488.68 183.337 466.973 175.724 448.887 184.417Z" fill="white"/>
<path d="M450.462 187.691C434.187 195.514 427.336 215.051 435.158 231.327C442.981 247.602 462.517 254.455 478.793 246.63C495.071 238.808 501.923 219.271 494.098 202.995C486.276 186.719 466.738 179.867 450.462 187.691Z" fill="#ACF6FC"/>
<path d="M476.975 199.039L471.541 196.352C470.837 196.004 469.987 196.294 469.638 196.996L465.932 204.492L462.224 196.996C461.877 196.294 461.024 196.004 460.321 196.352L454.889 199.039C454.186 199.387 453.898 200.239 454.245 200.943L460.205 212.996C460.554 213.7 461.406 213.988 462.109 213.64L465.932 211.749L469.754 213.64C470.457 213.988 471.308 213.7 471.656 212.996L477.618 200.943C477.965 200.239 477.679 199.387 476.975 199.039Z" fill="#FFC001"/>
<path d="M481.274 234.43C481.274 235.215 480.638 235.85 479.853 235.85H452.01C451.225 235.85 450.59 235.215 450.59 234.43V206.589C450.59 205.803 451.225 205.168 452.01 205.168H479.853C480.638 205.168 481.274 205.803 481.274 206.589V234.43Z" fill="#FF8D18"/>
<path d="M469.531 235.85H462.334V205.167H469.531V235.85Z" fill="#FBD45B"/>
<path d="M264.148 107.553C270.788 126.487 260.823 147.22 241.889 153.861C222.954 160.502 202.222 150.537 195.58 131.602C188.939 112.668 198.906 91.9347 217.839 85.2938C236.774 78.6529 257.506 88.6186 264.148 107.553Z" fill="white"/>
<path d="M260.719 108.756C266.695 125.797 257.726 144.456 240.686 150.434C223.644 156.41 204.985 147.44 199.008 130.4C193.031 113.359 202 94.6988 219.042 88.7224C236.082 82.746 254.742 91.7146 260.719 108.756Z" fill="#ACF6FC"/>
<path d="M245.676 110.901C245.676 120.198 228.841 141.082 228.841 141.082C228.841 141.082 212.005 120.198 212.005 110.901C212.005 101.603 219.542 94.0657 228.841 94.0657C238.138 94.0657 245.676 101.603 245.676 110.901Z" fill="#FF8D18"/>
<path d="M236.51 110.901C236.51 115.136 233.076 118.57 228.841 118.57C224.606 118.57 221.172 115.136 221.172 110.901C221.172 106.665 224.606 103.232 228.841 103.232C233.076 103.232 236.51 106.665 236.51 110.901Z" fill="white"/>
<path d="M136.567 184.417C154.65 193.109 162.264 214.817 153.572 232.901C144.88 250.985 123.172 258.598 105.087 249.905C87.0018 241.213 79.3898 219.505 88.082 201.421C96.775 183.337 118.482 175.724 136.567 184.417Z" fill="white"/>
<path d="M134.992 187.691C151.268 195.514 158.119 215.051 150.296 231.327C142.474 247.602 122.936 254.455 106.66 246.63C90.3837 238.808 83.5321 219.271 91.3555 202.995C99.1796 186.719 118.716 179.867 134.992 187.691Z" fill="#ACF6FC"/>
<path d="M112.243 197.633C111.068 197.633 110.112 198.59 110.112 199.765V210.208C110.112 211.384 111.068 212.34 112.243 212.34H126.368C127.543 212.34 128.499 211.384 128.499 210.208V199.765C128.499 198.59 127.543 197.633 126.368 197.633H112.243ZM126.368 213.76H112.243C110.284 213.76 108.692 212.167 108.692 210.208V199.765C108.692 197.806 110.284 196.213 112.243 196.213H126.368C128.326 196.213 129.92 197.806 129.92 199.765V210.208C129.92 212.167 128.326 213.76 126.368 213.76Z" fill="#FFC001"/>
<path d="M136.471 234.422C136.471 235.206 135.836 235.841 135.051 235.841H103.559C102.773 235.841 102.138 235.206 102.138 234.422L99.2959 206.408C99.2959 205.623 99.9319 204.987 100.715 204.987H137.896C138.68 204.987 139.315 205.623 139.315 206.408L136.471 234.422Z" fill="#FF8D18"/>
<path d="M322.131 107.553C315.491 126.487 325.456 147.22 344.39 153.861C363.325 160.502 384.056 150.537 390.698 131.602C397.34 112.668 387.373 91.9347 368.439 85.2938C349.505 78.6529 328.772 88.6186 322.131 107.553Z" fill="white"/>
<path d="M325.559 108.756C319.584 125.797 328.552 144.456 345.592 150.434C362.634 156.41 381.292 147.44 387.27 130.4C393.247 113.359 384.278 94.6988 367.236 88.7224C350.196 82.746 331.537 91.7146 325.559 108.756Z" fill="#ACF6FC"/>
<path d="M357.621 120.136C357.621 119.219 358.363 118.477 359.278 118.477H359.282V118.475C363.438 117.908 366.642 114.346 366.642 110.033V101.131H346.187V110.033C346.187 114.346 349.391 117.908 353.549 118.475V118.477C354.464 118.477 355.208 119.219 355.208 120.136C355.208 121.052 354.464 121.794 353.549 121.794C349.391 122.362 346.187 125.923 346.187 130.237V139.139H366.642V130.237C366.642 125.923 363.438 122.362 359.282 121.794H359.278C358.363 121.794 357.621 121.052 357.621 120.136Z" fill="white"/>
<path d="M347.607 130.997V137.719H365.223V130.237C365.223 130.018 365.212 129.8 365.192 129.586C362.618 126.843 357.46 125.489 356.178 124.948C354.805 128.453 349.123 129.589 347.607 130.997Z" fill="#FFC001"/>
<path d="M353.664 116.76C354.913 116.806 355.976 117.601 356.413 118.707C356.852 117.601 357.915 116.805 359.167 116.76C362.221 116.309 364.602 113.911 365.116 110.939C364.24 110.992 363.369 111.157 362.476 111.501C360.203 112.401 358.12 112.637 355.752 111.832C354.332 111.359 353.053 110.554 351.585 110.365C350.216 110.127 348.941 110.469 347.724 111.014C348.266 113.952 350.636 116.314 353.664 116.76Z" fill="#FFC001"/>
<path d="M357.978 130.062C361.528 128.359 356.179 124.948 356.179 124.948C354.805 128.453 349.123 129.589 347.607 130.997C347.607 130.997 354.426 131.767 357.978 130.062Z" fill="#FBD45B"/>
<path d="M365.116 110.939C364.24 110.993 363.369 111.157 362.476 111.501C360.203 112.401 358.12 112.638 355.752 111.832C354.332 111.359 353.053 110.554 351.585 110.364C350.217 110.127 348.941 110.469 347.724 111.014C347.724 111.014 352.105 112.922 356.415 114.153C360.724 115.384 363.211 111.229 365.116 110.939Z" fill="#FBD45B"/>
<path d="M368.065 101.699C368.065 102.484 367.428 103.12 366.644 103.12H346.188C345.403 103.12 344.767 102.484 344.767 101.699V100.562C344.767 99.7781 345.403 99.1421 346.188 99.1421H366.644C367.428 99.1421 368.065 99.7781 368.065 100.562V101.699Z" fill="#FF8D18"/>
<path d="M368.065 139.708C368.065 140.492 367.428 141.128 366.644 141.128H346.188C345.403 141.128 344.767 140.492 344.767 139.708V138.57C344.767 137.786 345.403 137.15 346.188 137.15H366.644C367.428 137.15 368.065 137.786 368.065 138.57V139.708Z" fill="#FF8D18"/>
</g>
</g>
<defs>
<linearGradient id="paint0_linear_92_576" x1="622.436" y1="-29.375" x2="350.483" y2="671.6" gradientUnits="userSpaceOnUse">
<stop stop-color="#DB241C"/>
<stop offset="1" stop-color="#E39B52"/>
</linearGradient>
<clipPath id="clip0_92_576">
<rect width="594" height="396" fill="white" transform="translate(0 52)"/>
</clipPath>
</defs>
</svg>
