<svg width="45" height="45" viewBox="0 0 45 45" fill="none" xmlns="http://www.w3.org/2000/svg">
<path d="M18.75 30.9375L24.375 32.8125C24.375 32.8125 38.4375 30 40.3125 30C42.1875 30 42.1875 31.875 40.3125 33.75C38.4375 35.625 31.875 41.25 26.25 41.25C20.625 41.25 16.875 38.4375 13.125 38.4375H3.75" stroke="#E39B52" stroke-width="4" stroke-linecap="round" stroke-linejoin="round"/>
<path d="M3.75 27.1875C5.625 25.3125 9.375 22.5 13.125 22.5C16.875 22.5 25.7812 26.25 27.1875 28.125C28.5938 30 24.375 32.8125 24.375 32.8125M15 16.875V9.375C15 8.87772 15.1975 8.40081 15.5492 8.04918C15.9008 7.69754 16.3777 7.5 16.875 7.5H39.375C39.8723 7.5 40.3492 7.69754 40.7008 8.04918C41.0525 8.40081 41.25 8.87772 41.25 9.375V24.375" stroke="#E39B52" stroke-width="4" stroke-linecap="round" stroke-linejoin="round"/>
<path d="M23.4375 7.5H32.8125V15.9375H23.4375V7.5Z" stroke="#E39B52" stroke-width="4" stroke-linecap="round" stroke-linejoin="round"/>
</svg>
