<svg width="30" height="35" viewBox="0 0 30 35" fill="none" xmlns="http://www.w3.org/2000/svg">
<g clip-path="url(#clip0_260_1809)">
<g filter="url(#filter0_d_260_1809)">
<path d="M8.3125 28.25C8.08333 28.25 7.89042 28.1717 7.73375 28.015C7.57708 27.8583 7.49917 27.6658 7.5 27.4375C7.5 27.3333 7.53125 27.2133 7.59375 27.0775C7.65625 26.9417 7.73958 26.8429 7.84375 26.7813L9.375 25.75C8.14583 25.75 7.10917 25.3283 6.265 24.485C5.42083 23.6417 4.99917 22.605 5 21.375V9.5C5 7.77083 5.80208 6.505 7.40625 5.7025C9.01042 4.9 11.5417 4.49917 15 4.5C18.5833 4.5 21.1458 4.88542 22.6875 5.65625C24.2292 6.42708 25 7.70833 25 9.5V21.375C25 22.6042 24.5783 23.6408 23.735 24.485C22.8917 25.3292 21.855 25.7508 20.625 25.75L22.1563 26.7813C22.2604 26.8438 22.3438 26.9375 22.4062 27.0625C22.4688 27.1875 22.5 27.3125 22.5 27.4375C22.5 27.6667 22.4217 27.8596 22.265 28.0163C22.1083 28.1729 21.9158 28.2508 21.6875 28.25H8.3125ZM7.5 14.5H13.75V10.75H7.5V14.5ZM20.625 17H7.5H22.5H20.625ZM16.25 14.5H22.5V10.75H16.25V14.5ZM10.625 22C11.1458 22 11.5888 21.8175 11.9538 21.4525C12.3188 21.0875 12.5008 20.645 12.5 20.125C12.5 19.6042 12.3175 19.1613 11.9525 18.7963C11.5875 18.4313 11.145 18.2492 10.625 18.25C10.1042 18.25 9.66125 18.4325 9.29625 18.7975C8.93125 19.1625 8.74917 19.605 8.75 20.125C8.75 20.6458 8.9325 21.0887 9.2975 21.4537C9.6625 21.8187 10.105 22.0008 10.625 22ZM19.375 22C19.8958 22 20.3388 21.8175 20.7038 21.4525C21.0688 21.0875 21.2508 20.645 21.25 20.125C21.25 19.6042 21.0675 19.1613 20.7025 18.7963C20.3375 18.4313 19.895 18.2492 19.375 18.25C18.8542 18.25 18.4113 18.4325 18.0463 18.7975C17.6813 19.1625 17.4992 19.605 17.5 20.125C17.5 20.6458 17.6825 21.0887 18.0475 21.4537C18.4125 21.8187 18.855 22.0008 19.375 22ZM9.375 23.25H20.625C21.1667 23.25 21.6146 23.0729 21.9688 22.7188C22.3229 22.3646 22.5 21.9167 22.5 21.375V17H7.5V21.375C7.5 21.9167 7.67708 22.3646 8.03125 22.7188C8.38542 23.0729 8.83333 23.25 9.375 23.25ZM15 7C13.2083 7 11.7238 7.10417 10.5463 7.3125C9.36875 7.52083 8.54083 7.83333 8.0625 8.25H22.0625C21.6875 7.83333 20.9117 7.52083 19.735 7.3125C18.5583 7.10417 16.98 7 15 7ZM15 8.25H22.0625H8.0625H15Z" fill="white"/>
</g>
</g>
<defs>
<filter id="filter0_d_260_1809" x="1" y="4.5" width="28" height="31.75" filterUnits="userSpaceOnUse" color-interpolation-filters="sRGB">
<feFlood flood-opacity="0" result="BackgroundImageFix"/>
<feColorMatrix in="SourceAlpha" type="matrix" values="0 0 0 0 0 0 0 0 0 0 0 0 0 0 0 0 0 0 127 0" result="hardAlpha"/>
<feOffset dy="4"/>
<feGaussianBlur stdDeviation="2"/>
<feComposite in2="hardAlpha" operator="out"/>
<feColorMatrix type="matrix" values="0 0 0 0 0 0 0 0 0 0 0 0 0 0 0 0 0 0 0.25 0"/>
<feBlend mode="normal" in2="BackgroundImageFix" result="effect1_dropShadow_260_1809"/>
<feBlend mode="normal" in="SourceGraphic" in2="effect1_dropShadow_260_1809" result="shape"/>
</filter>
<clipPath id="clip0_260_1809">
<rect width="30" height="35" fill="white"/>
</clipPath>
</defs>
</svg>
