<svg width="27" height="35" viewBox="0 0 27 35" fill="none" xmlns="http://www.w3.org/2000/svg">
<g clip-path="url(#clip0_260_1705)">
<g filter="url(#filter0_d_260_1705)">
<path d="M26.9314 17.1836L24.36 11.1247C24.2944 10.9682 24.1846 10.8347 24.0444 10.7409C23.9042 10.647 23.7397 10.5968 23.5714 10.5967H21V8.86556C21 8.636 20.9097 8.41584 20.7489 8.25352C20.5882 8.09119 20.3702 8 20.1429 8H3.85714C3.62981 8 3.4118 8.09119 3.25105 8.25352C3.09031 8.41584 3 8.636 3 8.86556V23.5802C3 23.8097 3.09031 24.0299 3.25105 24.1922C3.4118 24.3545 3.62981 24.4457 3.85714 24.4457H5.69143C5.88881 25.1792 6.31972 25.8267 6.91765 26.2883C7.51559 26.7499 8.24734 27 9 27C9.75266 27 10.4844 26.7499 11.0823 26.2883C11.6803 25.8267 12.1112 25.1792 12.3086 24.4457H17.6914C17.8888 25.1792 18.3197 25.8267 18.9177 26.2883C19.5156 26.7499 20.2473 27 21 27C21.7527 27 22.4844 26.7499 23.0823 26.2883C23.6803 25.8267 24.1112 25.1792 24.3086 24.4457H26.1429C26.3702 24.4457 26.5882 24.3545 26.7489 24.1922C26.9097 24.0299 27 23.8097 27 23.5802V17.5212C26.9998 17.4052 26.9765 17.2904 26.9314 17.1836ZM21 12.3278H23.0057L24.84 16.6556H21V12.3278ZM9 25.3113C8.66095 25.3113 8.32951 25.2098 8.04759 25.0195C7.76568 24.8293 7.54596 24.559 7.41621 24.2426C7.28646 23.9263 7.25251 23.5782 7.31865 23.2424C7.3848 22.9066 7.54807 22.5982 7.78782 22.3561C8.02756 22.114 8.33302 21.9491 8.66556 21.8823C8.9981 21.8155 9.34278 21.8498 9.65603 21.9808C9.96927 22.1118 10.237 22.3337 10.4254 22.6184C10.6137 22.9031 10.7143 23.2378 10.7143 23.5802C10.7143 24.0393 10.5337 24.4796 10.2122 24.8042C9.89069 25.1289 9.45466 25.3113 9 25.3113ZM17.6914 22.7146H12.3086C12.1112 21.9811 11.6803 21.3337 11.0823 20.872C10.4844 20.4104 9.75266 20.1603 9 20.1603C8.24734 20.1603 7.51559 20.4104 6.91765 20.872C6.31972 21.3337 5.88881 21.9811 5.69143 22.7146H4.71429V9.73113H19.2857V20.6026C18.8954 20.8314 18.5537 21.1357 18.2801 21.4981C18.0065 21.8605 17.8065 22.2739 17.6914 22.7146ZM21 25.3113C20.6609 25.3113 20.3295 25.2098 20.0476 25.0195C19.7657 24.8293 19.546 24.559 19.4162 24.2426C19.2865 23.9263 19.2525 23.5782 19.3187 23.2424C19.3848 22.9066 19.5481 22.5982 19.7878 22.3561C20.0276 22.114 20.333 21.9491 20.6656 21.8823C20.9981 21.8155 21.3428 21.8498 21.656 21.9808C21.9693 22.1118 22.237 22.3337 22.4254 22.6184C22.6137 22.9031 22.7143 23.2378 22.7143 23.5802C22.7143 24.0393 22.5337 24.4796 22.2122 24.8042C21.8907 25.1289 21.4547 25.3113 21 25.3113ZM25.2857 22.7146H24.3086C24.119 21.9733 23.6915 21.3163 23.0928 20.8464C22.4942 20.3766 21.7582 20.1204 21 20.1179V18.3868H25.2857V22.7146Z" fill="white"/>
</g>
</g>
<defs>
<filter id="filter0_d_260_1705" x="-1" y="8" width="32" height="27" filterUnits="userSpaceOnUse" color-interpolation-filters="sRGB">
<feFlood flood-opacity="0" result="BackgroundImageFix"/>
<feColorMatrix in="SourceAlpha" type="matrix" values="0 0 0 0 0 0 0 0 0 0 0 0 0 0 0 0 0 0 127 0" result="hardAlpha"/>
<feOffset dy="4"/>
<feGaussianBlur stdDeviation="2"/>
<feComposite in2="hardAlpha" operator="out"/>
<feColorMatrix type="matrix" values="0 0 0 0 0 0 0 0 0 0 0 0 0 0 0 0 0 0 0.25 0"/>
<feBlend mode="normal" in2="BackgroundImageFix" result="effect1_dropShadow_260_1705"/>
<feBlend mode="normal" in="SourceGraphic" in2="effect1_dropShadow_260_1705" result="shape"/>
</filter>
<clipPath id="clip0_260_1705">
<rect width="27" height="35" fill="white"/>
</clipPath>
</defs>
</svg>
