<svg width="42" height="42" viewBox="0 0 42 42" fill="none" xmlns="http://www.w3.org/2000/svg">
<g clip-path="url(#clip0_67_8624)">
<g filter="url(#filter0_d_67_8624)">
<path d="M5.25 21H21V23.625H5.25V21ZM2.625 14.4375H15.75V17.0625H2.625V14.4375Z" fill="white"/>
<path d="M5.25 20.5H4.75V21V23.625V24.125H5.25H21H21.5V23.625V21V20.5H21H5.25ZM2.625 13.9375H2.125V14.4375V17.0625V17.5625H2.625H15.75H16.25V17.0625V14.4375V13.9375H15.75H2.625Z" stroke="white"/>
</g>
<g filter="url(#filter1_d_67_8624)">
<path d="M39.2688 21.7954L35.3313 12.6079C35.2303 12.3717 35.0621 12.1705 34.8477 12.0291C34.6332 11.8877 34.382 11.8124 34.1251 11.8125H30.1876V9.1875C30.1876 8.8394 30.0494 8.50556 29.8032 8.25942C29.5571 8.01328 29.2232 7.875 28.8751 7.875H7.87513V10.5H27.5626V26.9797C26.9646 27.327 26.4412 27.7893 26.0226 28.3398C25.6041 28.8904 25.2987 29.5183 25.124 30.1875H16.8763C16.5568 28.9503 15.7971 27.872 14.7395 27.1548C13.6819 26.4377 12.3991 26.1308 11.1314 26.2918C9.86382 26.4529 8.69842 27.0707 7.85371 28.0294C7.009 28.9882 6.54297 30.2222 6.54297 31.5C6.54297 32.7778 7.009 34.0118 7.85371 34.9706C8.69842 35.9293 9.86382 36.5471 11.1314 36.7082C12.3991 36.8692 13.6819 36.5623 14.7395 35.8452C15.7971 35.128 16.5568 34.0497 16.8763 32.8125H25.124C25.4095 33.9389 26.0625 34.938 26.9796 35.6517C27.8967 36.3653 29.0256 36.7528 30.1876 36.7528C31.3497 36.7528 32.4786 36.3653 33.3957 35.6517C34.3128 34.938 34.9657 33.9389 35.2513 32.8125H38.0626C38.4107 32.8125 38.7446 32.6742 38.9907 32.4281C39.2369 32.1819 39.3751 31.8481 39.3751 31.5V22.3125C39.3752 22.1347 39.339 21.9587 39.2688 21.7954ZM11.8126 34.125C11.2935 34.125 10.7859 33.971 10.3543 33.6826C9.92258 33.3942 9.58613 32.9842 9.38745 32.5045C9.18877 32.0249 9.13679 31.4971 9.23807 30.9879C9.33936 30.4787 9.58937 30.011 9.95648 29.6438C10.3236 29.2767 10.7913 29.0267 11.3005 28.9254C11.8097 28.8242 12.3375 28.8761 12.8172 29.0748C13.2968 29.2735 13.7068 29.6099 13.9952 30.0416C14.2837 30.4733 14.4376 30.9808 14.4376 31.5C14.4369 32.196 14.1602 32.8633 13.668 33.3554C13.1759 33.8475 12.5086 34.1243 11.8126 34.125ZM30.1876 14.4375H33.2589L36.0729 21H30.1876V14.4375ZM30.1876 34.125C29.6685 34.125 29.1609 33.971 28.7293 33.6826C28.2976 33.3942 27.9611 32.9842 27.7625 32.5045C27.5638 32.0249 27.5118 31.4971 27.6131 30.9879C27.7144 30.4787 27.9644 30.011 28.3315 29.6438C28.6986 29.2767 29.1663 29.0267 29.6755 28.9254C30.1847 28.8242 30.7125 28.8761 31.1922 29.0748C31.6718 29.2735 32.0818 29.6099 32.3702 30.0416C32.6587 30.4733 32.8126 30.9808 32.8126 31.5C32.8119 32.196 32.5352 32.8633 32.043 33.3554C31.5509 33.8475 30.8836 34.1243 30.1876 34.125ZM36.7501 30.1875H35.2513C34.9621 29.0633 34.3081 28.0667 33.3918 27.3542C32.4754 26.6416 31.3485 26.2532 30.1876 26.25V23.625H36.7501V30.1875Z" fill="white"/>
<path d="M30.6876 11.3125H34.1249H34.1251V11.8125C34.382 11.8124 34.6332 11.8877 34.8477 12.0291C35.0621 12.1705 35.2303 12.3717 35.3313 12.6079L30.6876 11.3125ZM30.6876 11.3125V9.1875C30.6876 8.7068 30.4967 8.24578 30.1568 7.90587C29.8169 7.56596 29.3558 7.375 28.8751 7.375H7.87513H7.37513V7.875V10.5V11H7.87513H27.0626V26.7005C26.5107 27.0598 26.024 27.5118 25.6246 28.0372C25.2449 28.5367 24.9502 29.0943 24.7515 29.6875H17.2498C16.8522 28.4902 16.0702 27.4531 15.0201 26.741C13.8618 25.9555 12.4568 25.6195 11.0684 25.7958C9.68009 25.9722 8.4037 26.6488 7.47854 27.6989C6.55339 28.749 6.04297 30.1005 6.04297 31.5C6.04297 32.8995 6.55339 34.251 7.47854 35.3011C8.4037 36.3512 9.68009 37.0278 11.0684 37.2042C12.4568 37.3805 13.8618 37.0445 15.0201 36.259C16.0702 35.5469 16.8522 34.5098 17.2498 33.3125H24.7488C25.1028 34.392 25.7713 35.3449 26.6725 36.0463C27.6774 36.8282 28.9144 37.2528 30.1876 37.2528C31.4609 37.2528 32.6979 36.8282 33.7027 36.0463C34.604 35.3449 35.2725 34.392 35.6264 33.3125H38.0626C38.5433 33.3125 39.0044 33.1215 39.3443 32.7816C39.6842 32.4417 39.8751 31.9807 39.8751 31.5V22.3127C39.8751 22.3126 39.8751 22.3126 39.8751 22.3125C39.8752 22.067 39.8253 21.824 39.7284 21.5984L30.6876 11.3125ZM35.791 12.4112L39.7282 21.598L35.791 12.4112ZM35.791 12.4112C35.791 12.4111 35.791 12.4111 35.791 12.4111C35.7909 12.411 35.7909 12.411 35.7909 12.4109L35.791 12.4112ZM10.632 33.2669C10.9814 33.5003 11.392 33.6249 11.8121 33.625C12.3757 33.6244 12.916 33.4003 13.3145 33.0018C13.7128 32.6035 13.9369 32.0634 13.9376 31.5L10.632 33.2669ZM10.632 33.2669C10.2826 33.0334 10.0102 32.7015 9.84939 32.3132M10.632 33.2669L9.84939 32.3132M9.84939 32.3132C9.68855 31.9249 9.64647 31.4976 9.72847 31.0854M9.84939 32.3132L9.72847 31.0854M9.72847 31.0854C9.81046 30.6732 10.0128 30.2946 10.31 29.9974M9.72847 31.0854L10.31 29.9974M10.31 29.9974C10.6072 29.7002 10.9859 29.4978 11.3981 29.4158M10.31 29.9974L11.3981 29.4158M11.3981 29.4158C11.8103 29.3338 12.2375 29.3759 12.6258 29.5368M11.3981 29.4158L12.6258 29.5368M12.6258 29.5368C13.0141 29.6976 13.346 29.97 13.5795 30.3194M12.6258 29.5368L13.5795 30.3194M13.5795 30.3194C13.813 30.6688 13.9376 31.0797 13.9376 31.4999L13.5795 30.3194ZM29.007 33.2669C29.3564 33.5003 29.767 33.6249 30.1871 33.625C30.7507 33.6244 31.291 33.4003 31.6895 33.0018C32.0879 32.6034 32.3121 32.0631 32.3126 31.4995L29.007 33.2669ZM29.007 33.2669C28.6576 33.0334 28.3852 32.7015 28.2244 32.3132M29.007 33.2669L28.2244 32.3132M28.2244 32.3132C28.0636 31.9249 28.0215 31.4976 28.1035 31.0854M28.2244 32.3132L28.1035 31.0854M28.1035 31.0854C28.1855 30.6732 28.3878 30.2946 28.685 29.9974M28.1035 31.0854L28.685 29.9974M28.685 29.9974C28.9822 29.7002 29.3609 29.4978 29.7731 29.4158M28.685 29.9974L29.7731 29.4158M29.7731 29.4158C30.1853 29.3338 30.6125 29.3759 31.0008 29.5368M29.7731 29.4158L31.0008 29.5368M31.0008 29.5368C31.3891 29.6976 31.721 29.97 31.9545 30.3194M31.0008 29.5368L31.9545 30.3194M31.9545 30.3194C32.1879 30.6687 32.3125 31.0794 32.3126 31.4995L31.9545 30.3194ZM30.6876 14.9375H32.9293L35.3145 20.5H30.6876V14.9375ZM36.2501 29.6875H35.6252C35.2684 28.6102 34.5992 27.6597 33.6987 26.9594C32.8268 26.2814 31.7808 25.8714 30.6876 25.7731V24.125H36.2501V29.6875Z" stroke="white"/>
</g>
</g>
<defs>
<filter id="filter0_d_67_8624" x="-2.375" y="13.4375" width="28.375" height="19.1875" filterUnits="userSpaceOnUse" color-interpolation-filters="sRGB">
<feFlood flood-opacity="0" result="BackgroundImageFix"/>
<feColorMatrix in="SourceAlpha" type="matrix" values="0 0 0 0 0 0 0 0 0 0 0 0 0 0 0 0 0 0 127 0" result="hardAlpha"/>
<feOffset dy="4"/>
<feGaussianBlur stdDeviation="2"/>
<feComposite in2="hardAlpha" operator="out"/>
<feColorMatrix type="matrix" values="0 0 0 0 0 0 0 0 0 0 0 0 0 0 0 0 0 0 0.25 0"/>
<feBlend mode="normal" in2="BackgroundImageFix" result="effect1_dropShadow_67_8624"/>
<feBlend mode="normal" in="SourceGraphic" in2="effect1_dropShadow_67_8624" result="shape"/>
</filter>
<filter id="filter1_d_67_8624" x="1.54297" y="6.875" width="42.832" height="38.8778" filterUnits="userSpaceOnUse" color-interpolation-filters="sRGB">
<feFlood flood-opacity="0" result="BackgroundImageFix"/>
<feColorMatrix in="SourceAlpha" type="matrix" values="0 0 0 0 0 0 0 0 0 0 0 0 0 0 0 0 0 0 127 0" result="hardAlpha"/>
<feOffset dy="4"/>
<feGaussianBlur stdDeviation="2"/>
<feComposite in2="hardAlpha" operator="out"/>
<feColorMatrix type="matrix" values="0 0 0 0 0 0 0 0 0 0 0 0 0 0 0 0 0 0 0.25 0"/>
<feBlend mode="normal" in2="BackgroundImageFix" result="effect1_dropShadow_67_8624"/>
<feBlend mode="normal" in="SourceGraphic" in2="effect1_dropShadow_67_8624" result="shape"/>
</filter>
<clipPath id="clip0_67_8624">
<rect width="42" height="42" fill="white"/>
</clipPath>
</defs>
</svg>
