<svg width="45" height="45" viewBox="0 0 45 45" fill="none" xmlns="http://www.w3.org/2000/svg">
<path d="M41.4591 12.1275L27.3966 4.39313C27.189 4.27889 26.9558 4.21899 26.7188 4.21899C26.4818 4.21899 26.2486 4.27889 26.041 4.39313L11.9785 12.1275C11.758 12.2489 11.5741 12.4272 11.4461 12.6439C11.318 12.8606 11.2505 13.1077 11.2505 13.3594C11.2505 13.6111 11.318 13.8581 11.4461 14.0748C11.5741 14.2915 11.758 14.4699 11.9785 14.5913L25.3126 21.9248V36.9984L21.0432 34.65L19.6876 37.1123L26.041 40.6069C26.2486 40.7214 26.4818 40.7814 26.7188 40.7814C26.9559 40.7814 27.189 40.7214 27.3966 40.6069L41.4591 32.8725C41.6797 32.7512 41.8636 32.5728 41.9918 32.3562C42.1199 32.1395 42.1875 31.8924 42.1876 31.6406V13.3594C42.1875 13.1076 42.1199 12.8605 41.9918 12.6438C41.8636 12.4272 41.6797 12.2488 41.4591 12.1275ZM26.7188 7.23094L37.8633 13.3594L26.7188 19.4878L15.5743 13.3594L26.7188 7.23094ZM39.3751 30.8095L28.1251 36.997V21.9234L39.3751 15.7359V30.8095Z" fill="#E39B52"/>
<path d="M14.0625 22.5H2.8125V19.6875H14.0625V22.5ZM16.875 33.75H5.625V30.9375H16.875V33.75ZM19.6875 28.125H8.4375V25.3125H19.6875V28.125Z" fill="#E39B52"/>
</svg>
