<svg width="48" height="48" viewBox="0 0 48 48" fill="none" xmlns="http://www.w3.org/2000/svg">
<path fill-rule="evenodd" clip-rule="evenodd" d="M28.65 7.49989H19.35C19.0551 8.94079 18.3435 10.2633 17.3035 11.3033C16.2635 12.3433 14.9409 13.055 13.5 13.3499C13.4995 13.7832 13.4995 14.2166 13.5 14.6499C14.9409 14.9448 16.2635 15.6564 17.3035 16.6964C18.3435 17.7364 19.0551 19.059 19.35 20.4999H28.65C28.945 19.059 29.6566 17.7364 30.6966 16.6964C31.7366 15.6564 33.0591 14.9448 34.5 14.6499C34.5005 14.2166 34.5005 13.7832 34.5 13.3499C33.0591 13.055 31.7366 12.3433 30.6966 11.3033C29.6566 10.2633 28.945 8.94079 28.65 7.49989ZM29.86 4.50588C29.31 4.49988 28.726 4.49988 28.104 4.49988H19.896C19.276 4.49988 18.69 4.49988 18.142 4.50588C18.0328 4.49605 17.9228 4.49806 17.814 4.51188C16.91 4.52788 16.108 4.56588 15.412 4.65988C14.156 4.82788 13.022 5.19989 12.112 6.10989C11.2 7.02189 10.828 8.15588 10.66 9.40988C10.566 10.1079 10.528 10.9099 10.512 11.8139C10.4983 11.922 10.4963 12.0313 10.506 12.1399C10.5 12.6899 10.5 13.2759 10.5 13.8959V14.1039C10.5 14.7239 10.5 15.3099 10.506 15.8599C10.4964 15.9685 10.4984 16.0777 10.512 16.1859C10.528 17.0919 10.566 17.8919 10.66 18.5879C10.828 19.8439 11.2 20.9779 12.112 21.8879C13.022 22.7999 14.156 23.1719 15.412 23.3399C16.108 23.4339 16.91 23.4719 17.814 23.4879C17.9228 23.5019 18.0328 23.5039 18.142 23.4939C18.69 23.4999 19.276 23.4999 19.896 23.4999H28.104C28.724 23.4999 29.31 23.4999 29.86 23.4939C29.9686 23.5038 30.0779 23.5018 30.186 23.4879C31.092 23.4719 31.894 23.4339 32.588 23.3399C33.844 23.1719 34.978 22.7999 35.888 21.8879C36.8 20.9779 37.172 19.8439 37.34 18.5879C37.4348 17.7907 37.4842 16.9887 37.488 16.1859C37.5016 16.0777 37.5036 15.9685 37.494 15.8599C37.5 15.3099 37.5 14.7239 37.5 14.1039V13.8959C37.5 13.2759 37.5 12.6899 37.494 12.1399C37.504 12.0313 37.5019 11.922 37.488 11.8139C37.4839 11.0111 37.4345 10.2091 37.34 9.41188C37.172 8.15588 36.8 7.02189 35.89 6.11189C34.978 5.19988 33.844 4.82788 32.59 4.65988C31.7921 4.56533 30.9895 4.51592 30.186 4.51188C30.0779 4.49814 29.9686 4.49613 29.86 4.50588ZM31.788 7.58789C32.0145 8.18623 32.3656 8.72961 32.8179 9.182C33.2703 9.63438 33.8137 9.98543 34.412 10.2119C34.3995 10.0783 34.3841 9.94489 34.366 9.81189C34.244 8.88789 34.028 8.49189 33.766 8.23189C33.506 7.97189 33.112 7.75789 32.19 7.63189C32.057 7.61451 31.9237 7.59984 31.79 7.58789H31.788ZM34.412 17.7879C33.8137 18.0143 33.2703 18.3654 32.8179 18.8178C32.3656 19.2702 32.0145 19.8135 31.788 20.4119C31.928 20.3999 32.062 20.3839 32.188 20.3679C33.112 20.2419 33.508 20.0279 33.768 19.7679C34.028 19.5079 34.244 19.1119 34.368 18.1879C34.384 18.0619 34.4 17.9279 34.412 17.7879ZM16.212 20.4119C15.9856 19.8135 15.6345 19.2702 15.1822 18.8178C14.7298 18.3654 14.1864 18.0143 13.588 17.7879C13.602 17.9279 13.616 18.0619 13.634 18.1879C13.758 19.1119 13.972 19.5079 14.234 19.7679C14.494 20.0279 14.888 20.2419 15.81 20.3679C15.938 20.3839 16.072 20.3999 16.212 20.4119ZM13.588 10.2119C14.1864 9.98543 14.7298 9.63438 15.1822 9.182C15.6345 8.72961 15.9856 8.18623 16.212 7.58789C16.072 7.59988 15.938 7.61589 15.812 7.63389C14.888 7.75788 14.492 7.97189 14.232 8.23389C13.972 8.49389 13.758 8.88789 13.632 9.80989L13.588 10.2119ZM24 13.4999C23.8674 13.4999 23.7403 13.5526 23.6465 13.6463C23.5527 13.7401 23.5 13.8673 23.5 13.9999C23.5 14.1325 23.5527 14.2597 23.6465 14.3534C23.7403 14.4472 23.8674 14.4999 24 14.4999C24.1327 14.4999 24.2598 14.4472 24.3536 14.3534C24.4474 14.2597 24.5 14.1325 24.5 13.9999C24.5 13.8673 24.4474 13.7401 24.3536 13.6463C24.2598 13.5526 24.1327 13.4999 24 13.4999ZM20.5 13.9999C20.5 13.0716 20.8688 12.1814 21.5252 11.525C22.1815 10.8686 23.0718 10.4999 24 10.4999C24.9283 10.4999 25.8185 10.8686 26.4749 11.525C27.1313 12.1814 27.5 13.0716 27.5 13.9999C27.5 14.9281 27.1313 15.8184 26.4749 16.4748C25.8185 17.1311 24.9283 17.4999 24 17.4999C23.0718 17.4999 22.1815 17.1311 21.5252 16.4748C20.8688 15.8184 20.5 14.9281 20.5 13.9999ZM17.368 28.8959C21.1 28.1739 25.094 28.3359 28.328 30.2639C28.78 30.5339 29.208 30.8719 29.578 31.2879C30.33 32.1339 30.718 33.1819 30.736 34.2339C31.118 33.9879 31.502 33.7139 31.89 33.4199L35.506 30.6899C36.4114 30.0246 37.5055 29.6658 38.629 29.6658C39.7526 29.6658 40.8467 30.0246 41.752 30.6899C43.424 31.9499 44.092 34.2159 42.894 36.1359C42.044 37.4979 40.762 39.3839 39.46 40.5919C38.14 41.8119 36.266 42.8399 34.848 43.5239C33.124 44.3559 31.264 44.8159 29.454 45.1079C25.754 45.7079 21.906 45.6159 18.25 44.8619C16.3647 44.4739 14.4449 44.2776 12.52 44.2759H8.00005C7.60222 44.2759 7.22069 44.1179 6.93938 43.8365C6.65808 43.5552 6.50005 43.1737 6.50005 42.7759C6.50005 42.3781 6.65808 41.9965 6.93938 41.7152C7.22069 41.4339 7.60222 41.2759 8.00005 41.2759H12.52C14.644 41.2759 16.79 41.4979 18.856 41.9239C22.1884 42.6077 25.6169 42.6829 28.976 42.1459C30.632 41.8779 32.18 41.4799 33.544 40.8219C34.91 40.1619 36.446 39.2939 37.42 38.3919C38.406 37.4779 39.508 35.8959 40.35 34.5479C40.604 34.1399 40.568 33.5539 39.946 33.0839C39.206 32.5239 38.052 32.5239 37.314 33.0839L33.7 35.8139C32.256 36.9039 30.48 38.0699 28.278 38.4219C28.0474 38.4584 27.816 38.4904 27.584 38.5179C26.1827 38.6796 24.7682 38.693 23.364 38.5579C23.1644 38.5441 22.9696 38.4905 22.791 38.4003C22.6125 38.3101 22.4537 38.185 22.3242 38.0325C22.1947 37.8801 22.097 37.7032 22.0368 37.5124C21.9767 37.3215 21.9553 37.1206 21.974 36.9214C21.9927 36.7222 22.051 36.5288 22.1456 36.3524C22.2402 36.1761 22.3691 36.0205 22.5247 35.8948C22.6803 35.769 22.8595 35.6757 23.0517 35.6202C23.244 35.5648 23.4454 35.5483 23.644 35.5719C24.7535 35.6797 25.871 35.6776 26.98 35.5659L27.04 35.5599C27.2266 35.4441 27.3852 35.2883 27.5043 35.1038C27.6234 34.9193 27.7001 34.7106 27.7288 34.4929C27.7575 34.2752 27.7375 34.0538 27.6703 33.8447C27.6031 33.6356 27.4903 33.4441 27.34 33.2839C27.1807 33.1084 26.9952 32.9587 26.79 32.8399C24.428 31.4299 21.272 31.1959 17.938 31.8399C14.6815 32.495 11.5944 33.8123 8.86805 35.7099C8.70731 35.8239 8.52569 35.9051 8.33357 35.9489C8.14144 35.9927 7.94258 35.9982 7.74832 35.9652C7.55406 35.9321 7.36821 35.8611 7.20139 35.7562C7.03456 35.6513 6.89003 35.5146 6.77605 35.3539C6.66206 35.1932 6.58085 35.0115 6.53705 34.8194C6.49325 34.6273 6.48772 34.4284 6.52078 34.2342C6.55384 34.0399 6.62483 33.8541 6.72971 33.6872C6.83459 33.5204 6.97131 33.3759 7.13205 33.2619C10.2073 31.1178 13.692 29.6315 17.368 28.8959Z" fill="#E39B52"/>
</svg>
