<svg width="27" height="35" viewBox="0 0 27 35" fill="none" xmlns="http://www.w3.org/2000/svg">
<g clip-path="url(#clip0_260_1806)">
<g filter="url(#filter0_d_260_1806)">
<path d="M25.0351 17.2121L17.2969 13.3424V9.0625C17.2969 8.05551 16.8968 7.08976 16.1848 6.3777C15.4727 5.66565 14.507 5.26563 13.5 5.26562C12.493 5.26563 11.5273 5.66565 10.8152 6.3777C10.1032 7.08976 9.70312 8.05551 9.70312 9.0625V13.3424L1.96488 17.2121C1.75477 17.3172 1.57808 17.4788 1.45458 17.6786C1.33108 17.8785 1.26565 18.1088 1.26563 18.3438V21.7188C1.26559 21.906 1.3071 22.0909 1.38716 22.2602C1.46722 22.4294 1.58385 22.5788 1.72862 22.6976C1.87339 22.8163 2.04271 22.9015 2.22437 22.9469C2.40602 22.9923 2.59549 22.9968 2.7791 22.9601L9.70312 21.5753V22.8789L8.38582 24.1983C8.26833 24.3159 8.17516 24.4556 8.11164 24.6092C8.04812 24.7628 8.01549 24.9275 8.01562 25.0938V28.4688C8.01563 28.6756 8.06634 28.8793 8.16331 29.062C8.26029 29.2447 8.40057 29.4009 8.57188 29.5168C8.74319 29.6328 8.9403 29.705 9.14598 29.7271C9.35165 29.7492 9.5596 29.7206 9.75164 29.6437L13.5 28.1439L17.2484 29.6437C17.3979 29.7038 17.5576 29.7346 17.7188 29.7344C18.0544 29.7344 18.3763 29.601 18.6137 29.3637C18.851 29.1263 18.9844 28.8044 18.9844 28.4688V25.0938C18.9845 24.9275 18.9519 24.7628 18.8884 24.6092C18.8248 24.4556 18.7317 24.3159 18.6142 24.1983L17.2969 22.8789V21.5753L24.2209 22.9601C24.4045 22.9968 24.594 22.9923 24.7756 22.9469C24.9573 22.9015 25.1266 22.8163 25.2714 22.6976C25.4162 22.5788 25.5328 22.4294 25.6128 22.2602C25.6929 22.0909 25.7344 21.906 25.7344 21.7188V18.3438C25.7343 18.1088 25.6689 17.8785 25.5454 17.6786C25.4219 17.4788 25.2452 17.3172 25.0351 17.2121ZM23.2031 20.1747L16.2791 18.7899C16.0955 18.7532 15.906 18.7577 15.7244 18.8031C15.5427 18.8485 15.3734 18.9337 15.2286 19.0524C15.0838 19.1712 14.9672 19.3206 14.8872 19.4898C14.8071 19.6591 14.7656 19.844 14.7656 20.0313V23.4063C14.7655 23.5725 14.7981 23.7372 14.8616 23.8908C14.9252 24.0444 15.0183 24.1841 15.1358 24.3017L16.4531 25.6211V26.603L13.9704 25.6095C13.6684 25.4886 13.3316 25.4886 13.0296 25.6095L10.5469 26.5998V25.6211L11.8642 24.3048C11.9821 24.1868 12.0754 24.0467 12.139 23.8925C12.2025 23.7383 12.2349 23.573 12.2344 23.4063V20.0313C12.2344 19.844 12.1929 19.6591 12.1128 19.4898C12.0328 19.3206 11.9162 19.1712 11.7714 19.0524C11.6266 18.9337 11.4573 18.8485 11.2756 18.8031C11.094 18.7577 10.9045 18.7532 10.7209 18.7899L3.79688 20.1747V19.1263L11.5351 15.2567C11.7452 15.1515 11.9219 14.99 12.0454 14.7901C12.1689 14.5903 12.2343 14.3599 12.2344 14.125V9.0625C12.2344 8.72684 12.3677 8.40492 12.6051 8.16757C12.8424 7.93022 13.1643 7.79688 13.5 7.79688C13.8357 7.79688 14.1576 7.93022 14.3949 8.16757C14.6323 8.40492 14.7656 8.72684 14.7656 9.0625V14.125C14.7657 14.3599 14.8311 14.5903 14.9546 14.7901C15.0781 14.99 15.2548 15.1515 15.4649 15.2567L23.2031 19.1263V20.1747Z" fill="white"/>
</g>
</g>
<defs>
<filter id="filter0_d_260_1806" x="-2.73438" y="5.26562" width="32.4688" height="32.4688" filterUnits="userSpaceOnUse" color-interpolation-filters="sRGB">
<feFlood flood-opacity="0" result="BackgroundImageFix"/>
<feColorMatrix in="SourceAlpha" type="matrix" values="0 0 0 0 0 0 0 0 0 0 0 0 0 0 0 0 0 0 127 0" result="hardAlpha"/>
<feOffset dy="4"/>
<feGaussianBlur stdDeviation="2"/>
<feComposite in2="hardAlpha" operator="out"/>
<feColorMatrix type="matrix" values="0 0 0 0 0 0 0 0 0 0 0 0 0 0 0 0 0 0 0.25 0"/>
<feBlend mode="normal" in2="BackgroundImageFix" result="effect1_dropShadow_260_1806"/>
<feBlend mode="normal" in="SourceGraphic" in2="effect1_dropShadow_260_1806" result="shape"/>
</filter>
<clipPath id="clip0_260_1806">
<rect width="27" height="35" fill="white"/>
</clipPath>
</defs>
</svg>
