<svg width="42" height="42" viewBox="0 0 42 42" fill="none" xmlns="http://www.w3.org/2000/svg">
<g clip-path="url(#clip0_67_8629)">
<g filter="url(#filter0_d_67_8629)">
<path d="M38.9435 20.5521L26.9062 14.5327V7.875C26.9062 6.30857 26.284 4.80629 25.1763 3.69865C24.0687 2.59101 22.5664 1.96875 21 1.96875C19.4336 1.96875 17.9313 2.59101 16.8237 3.69865C15.716 4.80629 15.0938 6.30857 15.0938 7.875V14.5327L3.05648 20.5521C2.72965 20.7157 2.45479 20.967 2.26268 21.2779C2.07057 21.5888 1.96879 21.947 1.96875 22.3125V27.5625C1.96869 27.8538 2.03326 28.1414 2.15781 28.4047C2.28235 28.668 2.46376 28.9004 2.68897 29.0851C2.91417 29.2698 3.17755 29.4023 3.46012 29.4729C3.7427 29.5435 4.03742 29.5506 4.32305 29.4935L15.0938 27.3394V29.3672L13.0446 31.4196C12.8618 31.6026 12.7169 31.8198 12.6181 32.0588C12.5193 32.2978 12.4685 32.5539 12.4688 32.8125V38.0625C12.4688 38.3843 12.5476 38.7012 12.6985 38.9854C12.8493 39.2696 13.0675 39.5125 13.334 39.6929C13.6005 39.8732 13.9071 39.9855 14.2271 40.0199C14.547 40.0543 14.8705 40.0098 15.1692 39.8902L21 37.5572L26.8308 39.8902C27.0634 39.9837 27.3118 40.0316 27.5625 40.0313C28.0846 40.0313 28.5854 39.8238 28.9546 39.4546C29.3238 39.0854 29.5312 38.5846 29.5312 38.0625V32.8125C29.5315 32.5539 29.4807 32.2978 29.3819 32.0588C29.2831 31.8198 29.1382 31.6026 28.9554 31.4196L26.9062 29.3672V27.3394L37.677 29.4935C37.9626 29.5506 38.2573 29.5435 38.5399 29.4729C38.8224 29.4023 39.0858 29.2698 39.311 29.0851C39.5362 28.9004 39.7177 28.668 39.8422 28.4047C39.9667 28.1414 40.0313 27.8538 40.0312 27.5625V22.3125C40.0312 21.947 39.9294 21.5888 39.7373 21.2779C39.5452 20.967 39.2704 20.7157 38.9435 20.5521ZM36.0938 25.1606L25.323 23.0065C25.0374 22.9494 24.7427 22.9565 24.4601 23.0271C24.1776 23.0977 23.9142 23.2302 23.689 23.4149C23.4638 23.5996 23.2823 23.832 23.1578 24.0953C23.0333 24.3586 22.9687 24.6462 22.9688 24.9375V30.1875C22.9685 30.4461 23.0193 30.7022 23.1181 30.9412C23.2169 31.1802 23.3618 31.3974 23.5446 31.5804L25.5938 33.6328V35.1602L21.7317 33.6148C21.262 33.4267 20.738 33.4267 20.2683 33.6148L16.4062 35.1553V33.6328L18.4554 31.5853C18.6387 31.4018 18.784 31.1838 18.8828 30.9439C18.9817 30.704 19.0321 30.4469 19.0312 30.1875V24.9375C19.0313 24.6462 18.9667 24.3586 18.8422 24.0953C18.7177 23.832 18.5362 23.5996 18.311 23.4149C18.0858 23.2302 17.8224 23.0977 17.5399 23.0271C17.2573 22.9565 16.9626 22.9494 16.677 23.0065L5.90625 25.1606V23.5298L17.9435 17.5104C18.2704 17.3468 18.5452 17.0955 18.7373 16.7846C18.9294 16.4737 19.0312 16.1155 19.0312 15.75V7.875C19.0312 7.35286 19.2387 6.8521 19.6079 6.48288C19.9771 6.11367 20.4779 5.90625 21 5.90625C21.5221 5.90625 22.0229 6.11367 22.3921 6.48288C22.7613 6.8521 22.9688 7.35286 22.9688 7.875V15.75C22.9688 16.1155 23.0706 16.4737 23.2627 16.7846C23.4548 17.0955 23.7296 17.3468 24.0565 17.5104L36.0938 23.5298V25.1606Z" fill="white"/>
</g>
</g>
<defs>
<filter id="filter0_d_67_8629" x="-2.03125" y="1.96875" width="46.0625" height="46.0625" filterUnits="userSpaceOnUse" color-interpolation-filters="sRGB">
<feFlood flood-opacity="0" result="BackgroundImageFix"/>
<feColorMatrix in="SourceAlpha" type="matrix" values="0 0 0 0 0 0 0 0 0 0 0 0 0 0 0 0 0 0 127 0" result="hardAlpha"/>
<feOffset dy="4"/>
<feGaussianBlur stdDeviation="2"/>
<feComposite in2="hardAlpha" operator="out"/>
<feColorMatrix type="matrix" values="0 0 0 0 0 0 0 0 0 0 0 0 0 0 0 0 0 0 0.25 0"/>
<feBlend mode="normal" in2="BackgroundImageFix" result="effect1_dropShadow_67_8629"/>
<feBlend mode="normal" in="SourceGraphic" in2="effect1_dropShadow_67_8629" result="shape"/>
</filter>
<clipPath id="clip0_67_8629">
<rect width="42" height="42" fill="white"/>
</clipPath>
</defs>
</svg>
