<svg width="42" height="42" viewBox="0 0 42 42" fill="none" xmlns="http://www.w3.org/2000/svg">
<g clip-path="url(#clip0_67_8640)">
<g filter="url(#filter0_d_67_8640)">
<path d="M11.6375 36.75C11.3167 36.75 11.0466 36.6403 10.8273 36.421C10.6079 36.2017 10.4988 35.9322 10.5 35.6125C10.5 35.4667 10.5438 35.2987 10.6313 35.1085C10.7188 34.9183 10.8354 34.7801 10.9813 34.6938L13.125 33.25C11.4042 33.25 9.95284 32.6597 8.771 31.479C7.58917 30.2983 6.99884 28.847 7 27.125V10.5C7 8.07917 8.12292 6.307 10.3688 5.1835C12.6146 4.06 16.1583 3.49884 21 3.5C26.0167 3.5 29.6042 4.03958 31.7625 5.11875C33.9208 6.19792 35 7.99167 35 10.5V27.125C35 28.8458 34.4097 30.2972 33.229 31.479C32.0483 32.6608 30.597 33.2512 28.875 33.25L31.0188 34.6938C31.1646 34.7813 31.2812 34.9125 31.3687 35.0875C31.4563 35.2625 31.5 35.4375 31.5 35.6125C31.5 35.9333 31.3903 36.2034 31.171 36.4228C30.9517 36.6421 30.6822 36.7512 30.3625 36.75H11.6375ZM10.5 17.5H19.25V12.25H10.5V17.5ZM28.875 21H10.5H31.5H28.875ZM22.75 17.5H31.5V12.25H22.75V17.5ZM14.875 28C15.6042 28 16.2243 27.7445 16.7353 27.2335C17.2463 26.7225 17.5012 26.103 17.5 25.375C17.5 24.6458 17.2445 24.0258 16.7335 23.5148C16.2225 23.0038 15.603 22.7488 14.875 22.75C14.1458 22.75 13.5258 23.0055 13.0148 23.5165C12.5038 24.0275 12.2488 24.647 12.25 25.375C12.25 26.1042 12.5055 26.7242 13.0165 27.2353C13.5275 27.7463 14.147 28.0012 14.875 28ZM27.125 28C27.8542 28 28.4743 27.7445 28.9853 27.2335C29.4963 26.7225 29.7512 26.103 29.75 25.375C29.75 24.6458 29.4945 24.0258 28.9835 23.5148C28.4725 23.0038 27.853 22.7488 27.125 22.75C26.3958 22.75 25.7758 23.0055 25.2648 23.5165C24.7538 24.0275 24.4988 24.647 24.5 25.375C24.5 26.1042 24.7555 26.7242 25.2665 27.2353C25.7775 27.7463 26.397 28.0012 27.125 28ZM13.125 29.75H28.875C29.6333 29.75 30.2604 29.5021 30.7563 29.0063C31.2521 28.5104 31.5 27.8833 31.5 27.125V21H10.5V27.125C10.5 27.8833 10.7479 28.5104 11.2438 29.0063C11.7396 29.5021 12.3667 29.75 13.125 29.75ZM21 7C18.4917 7 16.4133 7.14583 14.7648 7.4375C13.1163 7.72917 11.9572 8.16667 11.2875 8.75H30.8875C30.3625 8.16667 29.2763 7.72917 27.629 7.4375C25.9817 7.14583 23.772 7 21 7ZM21 8.75H30.8875H11.2875H21Z" fill="white"/>
</g>
</g>
<defs>
<filter id="filter0_d_67_8640" x="3" y="3.5" width="36" height="41.25" filterUnits="userSpaceOnUse" color-interpolation-filters="sRGB">
<feFlood flood-opacity="0" result="BackgroundImageFix"/>
<feColorMatrix in="SourceAlpha" type="matrix" values="0 0 0 0 0 0 0 0 0 0 0 0 0 0 0 0 0 0 127 0" result="hardAlpha"/>
<feOffset dy="4"/>
<feGaussianBlur stdDeviation="2"/>
<feComposite in2="hardAlpha" operator="out"/>
<feColorMatrix type="matrix" values="0 0 0 0 0 0 0 0 0 0 0 0 0 0 0 0 0 0 0.25 0"/>
<feBlend mode="normal" in2="BackgroundImageFix" result="effect1_dropShadow_67_8640"/>
<feBlend mode="normal" in="SourceGraphic" in2="effect1_dropShadow_67_8640" result="shape"/>
</filter>
<clipPath id="clip0_67_8640">
<rect width="42" height="42" fill="white"/>
</clipPath>
</defs>
</svg>
