<svg width="42" height="42" viewBox="0 0 42 42" fill="none" xmlns="http://www.w3.org/2000/svg">
<g clip-path="url(#clip0_67_8409)">
<g filter="url(#filter0_d_67_8409)">
<path d="M39.27 21.8006L35.3325 12.6131C35.232 12.3759 35.0639 12.1735 34.8492 12.0311C34.6345 11.8887 34.3826 11.8127 34.125 11.8125H30.1875V9.1875C30.1875 8.8394 30.0492 8.50556 29.8031 8.25942C29.5569 8.01328 29.2231 7.875 28.875 7.875H3.9375C3.5894 7.875 3.25556 8.01328 3.00942 8.25942C2.76328 8.50556 2.625 8.8394 2.625 9.1875V31.5C2.625 31.8481 2.76328 32.1819 3.00942 32.4281C3.25556 32.6742 3.5894 32.8125 3.9375 32.8125H6.74625C7.0485 33.9247 7.70831 34.9065 8.62391 35.6065C9.5395 36.3064 10.66 36.6857 11.8125 36.6857C12.965 36.6857 14.0855 36.3064 15.0011 35.6065C15.9167 34.9065 16.5765 33.9247 16.8787 32.8125H25.1213C25.4235 33.9247 26.0833 34.9065 26.9989 35.6065C27.9145 36.3064 29.035 36.6857 30.1875 36.6857C31.34 36.6857 32.4605 36.3064 33.3761 35.6065C34.2917 34.9065 34.9515 33.9247 35.2537 32.8125H38.0625C38.4106 32.8125 38.7444 32.6742 38.9906 32.4281C39.2367 32.1819 39.375 31.8481 39.375 31.5V22.3125C39.3747 22.1366 39.339 21.9625 39.27 21.8006ZM30.1875 14.4375H33.2588L36.0675 21H30.1875V14.4375ZM11.8125 34.125C11.2933 34.125 10.7858 33.971 10.3541 33.6826C9.92245 33.3942 9.586 32.9842 9.38732 32.5045C9.18864 32.0249 9.13665 31.4971 9.23794 30.9879C9.33922 30.4787 9.58923 30.011 9.95634 29.6438C10.3235 29.2767 10.7912 29.0267 11.3004 28.9254C11.8096 28.8242 12.3374 28.8761 12.817 29.0748C13.2967 29.2735 13.7067 29.6099 13.9951 30.0416C14.2835 30.4733 14.4375 30.9808 14.4375 31.5C14.4375 32.1962 14.1609 32.8639 13.6687 33.3562C13.1764 33.8484 12.5087 34.125 11.8125 34.125ZM25.1213 30.1875H16.8787C16.5765 29.0753 15.9167 28.0935 15.0011 27.3935C14.0855 26.6936 12.965 26.3143 11.8125 26.3143C10.66 26.3143 9.5395 26.6936 8.62391 27.3935C7.70831 28.0935 7.0485 29.0753 6.74625 30.1875H5.25V10.5H27.5625V26.985C26.9648 27.3319 26.4415 27.7933 26.0226 28.3429C25.6037 28.8924 25.2974 29.5193 25.1213 30.1875ZM30.1875 34.125C29.6683 34.125 29.1608 33.971 28.7291 33.6826C28.2974 33.3942 27.961 32.9842 27.7623 32.5045C27.5636 32.0249 27.5117 31.4971 27.6129 30.9879C27.7142 30.4787 27.9642 30.011 28.3313 29.6438C28.6985 29.2767 29.1662 29.0267 29.6754 28.9254C30.1846 28.8242 30.7124 28.8761 31.192 29.0748C31.6717 29.2735 32.0817 29.6099 32.3701 30.0416C32.6585 30.4733 32.8125 30.9808 32.8125 31.5C32.8125 32.1962 32.5359 32.8639 32.0437 33.3562C31.5514 33.8484 30.8837 34.125 30.1875 34.125ZM36.75 30.1875H35.2537C34.9635 29.0634 34.3088 28.0672 33.3922 27.3547C32.4755 26.6423 31.3485 26.2538 30.1875 26.25V23.625H36.75V30.1875Z" fill="white"/>
<path d="M39.73 21.6047L39.7296 21.6037L35.7929 12.4181C35.7927 12.4177 35.7926 12.4173 35.7924 12.4169C35.6536 12.0898 35.4217 11.8108 35.1255 11.6144C34.829 11.4178 34.4812 11.3128 34.1254 11.3125H34.125H30.6875V9.1875C30.6875 8.70679 30.4965 8.24578 30.1566 7.90587C29.8167 7.56596 29.3557 7.375 28.875 7.375H3.9375C3.45679 7.375 2.99578 7.56596 2.65587 7.90587C2.31596 8.24578 2.125 8.7068 2.125 9.1875V31.5C2.125 31.9807 2.31596 32.4417 2.65587 32.7816C2.99578 33.1215 3.4568 33.3125 3.9375 33.3125H6.37742C6.74544 34.3783 7.41994 35.3154 8.32023 36.0037C9.32303 36.7703 10.5502 37.1857 11.8125 37.1857C13.0748 37.1857 14.302 36.7703 15.3048 36.0037C16.2051 35.3154 16.8796 34.3783 17.2476 33.3125H24.7524C25.1204 34.3783 25.7949 35.3154 26.6952 36.0037C27.698 36.7703 28.9252 37.1857 30.1875 37.1857C31.4498 37.1857 32.677 36.7703 33.6798 36.0037C34.5801 35.3154 35.2546 34.3783 35.6226 33.3125H38.0625C38.5432 33.3125 39.0042 33.1215 39.3441 32.7816C39.684 32.4417 39.875 31.9807 39.875 31.5V22.3125V22.3115C39.8745 22.0686 39.8252 21.8282 39.73 21.6047ZM30.6875 14.9375H32.9289L35.3096 20.5H30.6875V14.9375ZM11.8125 33.625C11.3922 33.625 10.9814 33.5004 10.6319 33.2669C10.2825 33.0334 10.0101 32.7015 9.84926 32.3132C9.68842 31.9249 9.64634 31.4976 9.72833 31.0854C9.81032 30.6732 10.0127 30.2946 10.3099 29.9974C10.6071 29.7002 10.9857 29.4978 11.3979 29.4158C11.8101 29.3338 12.2374 29.3759 12.6257 29.5368C13.014 29.6976 13.3459 29.97 13.5794 30.3194C13.8129 30.6689 13.9375 31.0797 13.9375 31.5C13.9375 32.0636 13.7136 32.6041 13.3151 33.0026C12.9166 33.4011 12.3761 33.625 11.8125 33.625ZM25.625 28.0398C25.2449 28.5384 24.9494 29.0951 24.7496 29.6875H17.2476C16.8796 28.6217 16.2051 27.6846 15.3048 26.9963C14.302 26.2297 13.0748 25.8143 11.8125 25.8143C10.5502 25.8143 9.32303 26.2297 8.32023 26.9963C7.41994 27.6846 6.74544 28.6217 6.37742 29.6875H5.75V11H27.0625V26.7057C26.5111 27.0644 26.0247 27.5155 25.625 28.0398ZM30.1875 33.625C29.7672 33.625 29.3564 33.5004 29.0069 33.2669C28.6575 33.0334 28.3851 32.7015 28.2243 32.3132C28.0634 31.9249 28.0213 31.4976 28.1033 31.0854C28.1853 30.6732 28.3877 30.2946 28.6849 29.9974C28.9821 29.7002 29.3607 29.4978 29.7729 29.4158C30.1851 29.3338 30.6124 29.3759 31.0007 29.5368C31.389 29.6976 31.7209 29.97 31.9544 30.3194C32.1879 30.6689 32.3125 31.0797 32.3125 31.5C32.3125 32.0636 32.0886 32.6041 31.6901 33.0026C31.2916 33.4011 30.7511 33.625 30.1875 33.625ZM36.25 29.6875H35.6273C35.2696 28.6103 34.5998 27.66 33.699 26.9599C32.8268 26.2821 31.7808 25.872 30.6875 25.7733V24.125H36.25V29.6875Z" stroke="white"/>
</g>
</g>
<defs>
<filter id="filter0_d_67_8409" x="-2.375" y="6.875" width="46.75" height="38.8107" filterUnits="userSpaceOnUse" color-interpolation-filters="sRGB">
<feFlood flood-opacity="0" result="BackgroundImageFix"/>
<feColorMatrix in="SourceAlpha" type="matrix" values="0 0 0 0 0 0 0 0 0 0 0 0 0 0 0 0 0 0 127 0" result="hardAlpha"/>
<feOffset dy="4"/>
<feGaussianBlur stdDeviation="2"/>
<feComposite in2="hardAlpha" operator="out"/>
<feColorMatrix type="matrix" values="0 0 0 0 0 0 0 0 0 0 0 0 0 0 0 0 0 0 0.25 0"/>
<feBlend mode="normal" in2="BackgroundImageFix" result="effect1_dropShadow_67_8409"/>
<feBlend mode="normal" in="SourceGraphic" in2="effect1_dropShadow_67_8409" result="shape"/>
</filter>
<clipPath id="clip0_67_8409">
<rect width="42" height="42" fill="white"/>
</clipPath>
</defs>
</svg>
